<?xml version="1.0" encoding="UTF-8" standalone="no"?><!-- Generator: Gravit.io --><svg xmlns="http://www.w3.org/2000/svg" xmlns:xlink="http://www.w3.org/1999/xlink" style="isolation:isolate" viewBox="0 0 960 960" width="960pt" height="960pt"><g><g><g><g><g><path d=" M 730.241 479.911 C 730.241 618.19 618.184 730.152 480 730.152 C 341.816 730.152 229.759 618.19 229.759 479.911 C 229.759 341.821 341.816 229.765 480 229.765 C 618.184 229.765 730.241 341.821 730.241 479.911 Z " fill="rgb(239,65,54)"/><path d=" M 478.397 653.75 C 479.057 652.712 479.34 652.24 479.34 652.24 C 479.245 652.429 479.057 652.618 478.868 652.807 Q 478.679 653.184 478.397 653.75 Z " fill="rgb(239,65,54)"/><path d=" M 353.512 567.349 C 354.927 563.859 356.625 560.464 358.794 557.351 C 383.978 521.319 374.075 491.89 360.586 473.026 C 365.019 491.89 357.662 508.02 330.025 539.429 C 291.447 583.384 312.764 668.464 390.204 678.557 C 444.346 685.537 468.304 665.446 476.227 656.391 C 477.076 655.259 478.019 654.033 478.868 652.807 C 479.057 652.618 479.245 652.429 479.34 652.24 C 395.109 708.741 333.987 618.284 353.512 567.349 L 353.512 567.349 Z " fill="rgb(190,30,45)"/><path d=" M 641.105 570.556 C 703.83 529.242 663.837 444.917 634.974 440.39 C 640.256 447.652 646.67 482.647 625.824 504.152 C 604.979 525.658 562.25 506.793 587.246 459.254 C 612.147 411.621 589.227 357.573 537.537 347.103 C 486.225 336.728 470.756 308.525 486.32 282.114 C 501.789 255.704 478.868 236.745 462.833 229.765 C 472.926 254.195 459.626 276.172 416.049 295.886 C 362.19 320.221 369.358 373.42 407.371 399.453 C 439.629 421.619 426.519 465.857 384.45 476.327 C 393.316 453.878 378.508 423.883 345.589 410.395 C 320.499 400.019 323.894 383.512 326.818 377.664 C 311.255 386.625 299.559 412.281 315.594 431.429 C 339.741 460.386 345.494 481.703 310.123 523.017 C 263.999 576.782 288.617 639.601 337.1 671.105 C 383.884 701.572 444.912 697.233 476.227 656.391 C 468.304 665.446 444.346 685.537 390.204 678.557 C 312.764 668.464 291.447 583.384 330.025 539.429 C 357.662 508.02 365.019 491.89 360.586 473.026 C 374.075 491.89 383.978 521.319 358.794 557.351 C 356.625 560.464 354.927 563.859 353.512 567.349 C 368.792 538.769 400.485 512.924 428.782 498.776 C 473.02 476.61 473.02 428.128 453.306 403.037 C 433.593 377.947 423.406 353.989 434.725 338.426 C 437.177 352.197 441.988 373.703 476.038 387.474 C 480 389.078 484.339 391.247 488.961 393.888 C 488.772 393.794 488.678 393.699 488.489 393.605 C 444.912 371.628 419.35 323.617 465.097 290.038 C 465.097 290.038 451.231 330.408 486.225 346.538 C 521.219 362.667 562.062 394.077 569.608 435.768 C 577.248 477.553 568.476 529.431 559.232 545.466 C 574.324 556.408 584.794 569.99 590.83 584.045 C 590.83 569.519 595.169 555.842 608.846 549.05 C 623.466 541.693 636.955 531.129 636.955 523.3 C 644.123 536.505 640.539 563.954 622.617 572.914 C 647.142 584.893 646.576 669.313 584.888 675.256 C 523.295 681.198 489.81 675.067 488.301 705.062 C 492.451 684.688 527.728 685.348 553.667 689.404 C 584.699 694.215 621.957 682.801 639.501 668.653 C 676.571 638.752 676.287 582.252 641.105 570.556 L 641.105 570.556 Z " fill="rgb(239,65,54)"/><line x1="498.77" y1="400.113" x2="498.676" y2="400.019"/><path d=" M 584.888 675.256 C 646.576 669.313 647.142 584.893 622.617 572.914 C 640.539 563.954 644.123 536.505 636.955 523.3 C 636.955 531.129 623.466 541.693 608.846 549.05 C 595.169 555.842 590.83 569.519 590.83 584.045 C 607.431 622.812 589.416 665.446 535.462 667.898 C 534.802 667.898 534.33 667.898 533.67 667.898 C 532.35 668.087 531.123 668.464 529.709 668.559 C 500.28 670.917 479.906 684.688 488.301 705.062 C 489.81 675.067 523.295 681.198 584.888 675.256 Z " fill="rgb(190,30,45)"/><path d=" M 498.77 400.113 C 532.821 423.6 573.192 472.648 559.232 545.466 C 568.476 529.431 577.248 477.553 569.608 435.768 C 562.062 394.077 521.219 362.667 486.225 346.538 C 451.231 330.408 465.097 290.038 465.097 290.038 C 419.35 323.617 444.912 371.628 488.489 393.605 C 488.678 393.699 488.772 393.794 488.961 393.888 Q 493.677 396.623 498.676 400.019 L 498.77 400.113 Z " fill="rgb(255,194,30)"/><path d=" M 488.961 393.888 C 492.356 395.68 495.563 397.661 498.676 400.019 Q 493.677 396.623 488.961 393.888 Z " fill="rgb(239,65,54)"/><path d=" M 590.83 584.045 C 584.794 569.99 574.324 556.408 559.232 545.466 C 573.192 472.648 532.821 423.6 498.77 400.113 L 498.676 400.019 C 495.563 397.661 492.356 395.68 488.961 393.888 C 484.339 391.247 480 389.078 476.038 387.474 C 441.988 373.703 437.177 352.197 434.725 338.426 C 423.406 353.989 433.593 377.947 453.306 403.037 C 473.02 428.128 473.02 476.61 428.782 498.776 C 400.485 512.924 368.792 538.769 353.512 567.349 C 333.987 618.284 395.109 708.741 479.34 652.24 C 437.271 675.821 398.976 659.409 389.072 635.168 C 379.262 610.927 371.15 572.16 443.874 520.282 C 492.262 485.759 484.245 444.068 484.245 444.068 C 541.688 471.516 548.668 525.092 546.592 552.918 C 563.571 556.691 579.606 589.138 578.474 611.776 C 578.002 620.453 576.21 628.471 573.286 635.734 C 566.589 652.712 553.384 664.974 533.67 667.898 C 534.33 667.898 534.802 667.898 535.462 667.898 C 589.416 665.446 607.431 622.812 590.83 584.045 L 590.83 584.045 Z " fill="rgb(247,148,30)"/><path d=" M 476.227 656.391 L 480.566 660.164 Q 482.075 658.466 483.018 657.145 C 483.207 656.957 483.396 656.674 483.49 656.391 C 483.584 656.202 483.679 656.013 483.867 655.731 C 485.471 653.09 484.622 649.6 481.981 647.996 C 479.34 646.298 475.85 647.053 474.058 649.6 C 473.492 650.543 472.643 651.58 471.605 652.901 C 469.719 655.353 470.096 658.938 472.548 660.824 C 475.001 662.805 478.491 662.522 480.566 660.164 L 476.227 656.391 L 480.755 659.881 C 481.604 658.843 482.641 657.617 483.679 656.108 L 478.868 652.807 L 473.869 649.882 C 473.775 650.165 473.586 650.543 473.303 651.014 L 478.397 653.75 L 473.68 650.26 C 473.397 650.731 472.643 651.675 471.794 652.618 L 476.227 656.391 L 480.755 659.881 L 476.227 656.391 Z " fill="rgb(0,0,0)"/><path d=" M 478.397 653.75 L 483.113 657.051 C 483.867 655.919 484.339 655.259 484.433 655.07 C 485.942 652.335 484.999 648.939 482.452 647.336 C 479.811 645.638 476.321 646.392 474.624 648.939 L 476.793 650.448 L 474.718 648.845 L 474.624 648.939 L 476.793 650.448 L 474.718 648.845 L 475.095 649.128 L 474.718 648.845 L 475.095 649.128 L 474.718 648.845 Q 474.718 648.845 474.246 649.411 C 474.058 649.6 474.058 649.694 473.869 649.882 C 473.775 650.165 473.586 650.543 473.303 651.014 C 471.888 653.655 472.737 657.051 475.378 658.655 C 477.925 660.258 481.32 659.504 483.113 657.051 L 478.397 653.75 L 483.49 656.391 C 483.584 656.202 483.679 656.013 483.867 655.731 L 478.868 652.807 L 483.49 656.296 L 481.887 655.07 L 483.49 656.296 L 481.887 655.07 L 483.49 656.296 L 482.83 655.825 L 483.49 656.296 L 482.83 655.825 L 483.49 656.296 C 483.584 656.202 483.867 655.919 484.15 655.448 L 479.34 652.24 L 474.341 649.411 L 477.453 651.109 L 474.341 649.317 L 474.341 649.411 L 477.453 651.109 L 474.341 649.317 L 474.718 649.6 L 474.341 649.317 L 474.718 649.6 L 474.341 649.317 C 474.341 649.317 474.152 649.694 473.68 650.354 L 478.397 653.75 L 483.49 656.391 L 478.397 653.75 Z " fill="rgb(0,0,0)"/><path d=" M 493.96 706.194 C 494.149 705.062 494.62 704.024 495.092 703.081 C 495.941 701.478 497.261 700.063 499.053 698.742 Q 501.128 697.327 504.053 696.195 C 506.976 695.064 510.561 694.215 514.428 693.649 C 518.39 693.177 522.634 692.894 527.067 692.894 C 535.557 692.894 544.612 693.837 552.723 695.064 C 558.006 695.912 563.477 696.29 568.853 696.29 C 583.19 696.29 597.716 693.649 610.638 689.498 C 617.052 687.423 623.183 684.971 628.654 682.235 C 634.125 679.5 639.03 676.482 643.086 673.181 C 653.178 665.069 660.724 655.07 665.629 644.506 C 670.628 634.036 673.175 622.812 673.175 612.247 C 673.175 601.777 670.722 591.779 665.723 583.384 C 663.271 579.234 660.064 575.461 656.291 572.348 C 652.424 569.236 647.99 566.689 642.991 565.085 L 641.105 570.556 L 644.312 575.367 C 657.329 566.878 666.384 556.408 672.043 545.089 C 677.797 533.77 680.155 521.697 680.155 510 C 680.155 500.851 678.74 491.89 676.287 483.495 C 672.515 470.856 666.667 459.632 659.687 450.954 C 656.197 446.709 652.424 443.031 648.462 440.201 C 644.5 437.465 640.35 435.39 635.823 434.73 C 633.559 434.353 631.295 435.39 630.069 437.465 C 628.843 439.446 628.937 441.993 630.352 443.88 C 630.446 443.974 630.541 444.257 630.824 444.634 C 631.107 445.294 631.578 446.426 632.05 447.747 C 632.71 449.728 633.276 452.274 633.748 455.198 C 634.125 458.122 634.408 461.424 634.408 464.914 C 634.408 470.762 633.653 477.176 631.673 483.212 C 629.597 489.344 626.485 495.192 621.674 500.096 C 619.316 502.549 616.675 504.341 613.845 505.473 C 611.11 506.605 608.186 507.171 605.356 507.171 C 602.715 507.171 600.168 506.699 597.81 505.85 C 594.32 504.435 591.302 502.172 589.038 498.87 C 586.869 495.663 585.454 491.419 585.454 485.854 C 585.454 479.534 587.34 471.516 592.339 461.895 C 599.603 448.03 603.092 433.504 603.092 419.45 C 603.092 401.057 597.056 383.607 586.02 369.647 C 574.89 355.781 558.666 345.5 538.669 341.444 C 529.331 339.558 521.314 337.105 514.617 334.181 C 504.524 329.748 497.356 324.466 492.828 318.901 C 490.564 316.165 488.961 313.336 487.923 310.412 Q 486.32 306.167 486.32 301.639 C 486.32 296.357 487.923 290.792 491.319 285.038 Q 494.337 279.851 495.752 274.757 C 496.79 271.362 497.167 268.06 497.167 264.853 C 497.167 259.665 495.941 254.761 493.96 250.327 C 490.847 243.819 486.131 238.443 480.943 234.198 C 475.85 229.953 470.285 226.652 465.191 224.483 C 463.022 223.539 460.475 224.011 458.777 225.615 C 457.174 227.312 456.608 229.765 457.551 231.934 C 459.343 236.462 460.286 240.706 460.286 244.668 C 460.286 248.535 459.437 252.214 457.834 255.987 C 456.513 258.817 454.721 261.646 452.363 264.476 C 448.779 268.815 443.874 273.248 437.46 277.587 C 431.046 281.926 423.123 286.265 413.596 290.604 C 399.353 297.018 388.695 305.695 381.715 315.505 C 374.735 325.409 371.433 336.445 371.528 347.481 C 371.528 358.328 374.641 369.081 380.206 378.796 C 385.865 388.606 393.977 397.284 404.069 404.264 C 409.54 408.037 413.407 412.375 415.954 416.903 C 418.407 421.525 419.633 426.43 419.633 431.429 C 419.633 439.446 416.52 447.747 410.295 454.821 C 404.164 461.895 395.014 467.743 383.13 470.762 L 384.45 476.327 L 389.827 478.496 C 391.807 473.497 392.751 468.121 392.751 462.744 C 392.751 451.425 388.6 439.918 380.866 429.731 C 373.226 419.638 362.001 410.866 347.758 405.018 C 343.985 403.509 340.967 401.811 338.703 400.113 C 335.213 397.567 333.232 395.114 332.1 392.85 C 330.969 390.587 330.591 388.512 330.591 386.531 C 330.591 385.21 330.78 383.984 331.063 382.852 C 331.346 381.72 331.723 380.777 332.006 380.211 C 333.138 377.947 332.666 375.212 330.78 373.42 C 328.893 371.722 326.158 371.345 323.989 372.571 C 320.876 374.363 317.952 376.627 315.405 379.268 C 311.538 383.229 308.237 388.04 305.878 393.322 C 303.52 398.698 302.105 404.547 302.105 410.678 C 302.105 414.828 302.766 419.072 304.275 423.223 C 305.69 427.373 308.048 431.429 311.161 435.202 C 317.103 442.276 321.725 448.69 324.743 454.821 C 326.347 457.84 327.479 460.858 328.233 463.782 C 328.988 466.8 329.459 469.724 329.459 472.743 C 329.459 475.761 328.988 478.874 328.139 482.175 C 326.913 487.174 324.555 492.645 320.876 498.776 C 317.197 504.907 312.198 511.698 305.784 519.244 C 296.823 529.714 290.315 540.561 286.07 551.597 C 281.826 562.633 279.845 573.763 279.845 584.705 C 279.845 603.192 285.41 620.831 295.031 636.488 C 304.558 652.052 318.046 665.635 333.893 675.916 C 355.115 689.781 379.168 696.761 402.372 696.761 C 417.558 696.761 432.367 693.743 445.855 687.612 C 459.249 681.481 471.322 672.237 480.755 659.881 C 482.735 657.334 482.264 653.75 479.717 651.769 C 477.17 649.882 473.586 650.354 471.605 652.901 C 463.305 663.654 452.929 671.766 441.044 677.142 C 429.254 682.518 416.049 685.16 402.372 685.16 C 381.526 685.16 359.549 678.84 340.212 666.295 C 325.686 656.862 313.424 644.412 304.841 630.452 C 296.257 616.397 291.353 600.834 291.353 584.705 C 291.353 575.178 293.05 565.463 296.823 555.747 C 300.596 546.032 306.35 536.317 314.556 526.79 C 323.517 516.226 330.12 506.793 334.459 497.927 Q 337.76 491.324 339.363 485.005 Q 340.967 478.779 340.967 472.743 C 340.967 468.687 340.401 464.725 339.458 460.858 C 337.948 455.104 335.307 449.633 332.006 444.163 C 328.705 438.692 324.649 433.315 320.027 427.75 C 317.763 425.015 316.16 422.185 315.122 419.355 C 314.179 416.526 313.707 413.602 313.707 410.678 C 313.707 404.924 315.5 399.076 318.424 394.171 C 319.933 391.624 321.725 389.36 323.611 387.38 C 325.592 385.399 327.667 383.795 329.742 382.663 L 326.818 377.664 L 321.631 375.023 C 320.97 376.438 320.31 378.042 319.838 380.022 C 319.367 381.909 318.989 384.078 318.989 386.531 C 318.989 388.889 319.367 391.53 320.216 394.171 C 321.442 398.133 323.8 402.189 327.667 405.867 C 331.44 409.64 336.628 412.941 343.419 415.677 C 355.87 420.77 365.302 428.316 371.716 436.711 C 378.036 445.106 381.243 454.349 381.243 462.744 C 381.243 466.8 380.583 470.667 379.168 474.252 C 378.319 476.233 378.696 478.496 380.111 480.1 C 381.526 481.798 383.79 482.458 385.865 481.892 C 399.919 478.402 411.238 471.422 419.067 462.367 C 426.801 453.406 431.14 442.465 431.14 431.429 C 431.14 424.543 429.537 417.752 426.047 411.432 C 422.651 405.113 417.463 399.359 410.578 394.737 C 401.9 388.7 394.92 381.249 390.204 373.042 C 385.488 364.931 383.035 356.064 383.035 347.481 C 383.035 338.709 385.582 330.125 391.147 322.202 C 396.807 314.279 405.579 306.922 418.407 301.073 C 427.273 297.112 434.913 292.962 441.516 288.717 C 451.42 282.303 458.871 275.606 464.059 268.249 Q 467.927 262.684 469.813 256.836 C 471.133 252.874 471.794 248.818 471.794 244.668 C 471.794 239.009 470.568 233.255 468.21 227.595 L 462.833 229.765 L 460.569 235.047 C 463.305 236.273 466.323 237.877 469.247 239.857 C 473.68 242.782 477.925 246.649 480.943 250.893 C 482.358 252.968 483.584 255.232 484.433 257.59 C 485.188 259.854 485.659 262.306 485.659 264.853 C 485.659 267.023 485.376 269.192 484.716 271.55 C 483.962 273.908 482.924 276.455 481.32 279.19 C 477.076 286.359 474.812 293.999 474.812 301.639 C 474.718 307.393 476.133 313.147 478.868 318.523 C 480.849 322.579 483.679 326.352 487.074 329.842 C 492.262 335.03 499.053 339.652 507.259 343.519 C 515.466 347.386 525.181 350.499 536.406 352.763 C 545.178 354.555 552.912 357.573 559.704 361.724 C 569.891 367.855 577.814 376.344 583.19 386.248 C 588.661 396.152 591.585 407.565 591.585 419.45 C 591.585 431.523 588.566 444.257 582.153 456.613 C 576.399 467.46 573.852 477.176 573.852 485.854 C 573.852 490.947 574.795 495.569 576.493 499.719 C 578.945 505.85 583.19 510.661 588.284 513.962 C 593.377 517.169 599.32 518.773 605.356 518.773 C 609.695 518.773 614.128 517.924 618.373 516.131 C 622.523 514.339 626.485 511.698 629.975 508.114 C 636.106 501.794 640.162 494.343 642.614 486.891 C 645.066 479.345 646.01 471.799 646.01 464.914 C 646.01 458.688 645.255 453.029 644.123 448.313 Q 643.274 444.823 642.237 441.993 Q 641.671 440.578 641.011 439.352 C 640.633 438.503 640.162 437.749 639.596 436.994 L 634.974 440.39 L 634.125 446.143 C 635.54 446.332 637.143 446.898 639.03 447.936 C 642.142 449.539 645.727 452.557 649.217 456.519 C 654.404 462.461 659.309 470.573 662.894 479.911 C 666.384 489.155 668.647 499.625 668.647 510 C 668.647 520.187 666.572 530.374 661.762 539.901 C 656.951 549.333 649.405 558.2 637.992 565.746 C 636.106 566.972 635.163 569.141 635.446 571.311 C 635.728 573.48 637.238 575.272 639.313 576.027 C 642.991 577.253 646.198 579.045 648.934 581.309 C 652.99 584.61 656.197 589.044 658.366 594.326 C 660.441 599.608 661.573 605.739 661.573 612.247 C 661.573 621.019 659.498 630.546 655.253 639.601 C 650.915 648.656 644.5 657.145 635.823 664.125 C 632.616 666.766 628.371 669.502 623.466 671.954 C 616.109 675.633 607.337 678.84 597.905 681.104 C 588.566 683.367 578.568 684.688 568.853 684.688 C 563.948 684.688 559.138 684.405 554.516 683.65 C 545.932 682.33 536.406 681.387 527.067 681.387 C 522.163 681.387 517.258 681.575 512.636 682.235 C 509.146 682.801 505.845 683.462 502.638 684.499 C 497.922 685.914 493.583 688.083 489.998 691.291 C 488.206 692.894 486.603 694.781 485.376 696.856 C 484.056 699.025 483.113 701.383 482.641 703.93 C 481.981 707.043 483.962 710.061 487.169 710.721 C 490.281 711.382 493.3 709.401 493.96 706.194 L 493.96 706.194 Z " fill="rgb(0,0,0)"/><path d=" M 535.274 662.05 C 534.708 662.144 534.142 662.144 533.293 662.144 C 533.104 662.144 533.01 662.144 532.727 662.239 C 531.878 662.333 531.123 662.522 530.557 662.616 C 529.992 662.71 529.614 662.805 529.237 662.805 C 522.634 663.371 516.503 664.408 510.844 666.012 C 506.599 667.238 502.732 668.747 499.148 670.539 C 493.771 673.181 489.244 676.67 485.942 680.915 C 484.245 683.085 482.924 685.443 481.981 688.083 C 481.132 690.63 480.66 693.366 480.66 696.195 C 480.66 699.78 481.415 703.553 482.924 707.231 C 484.15 710.25 487.546 711.664 490.47 710.438 C 493.394 709.212 494.809 705.816 493.677 702.892 C 492.545 700.346 492.168 698.082 492.168 696.195 C 492.168 694.781 492.356 693.554 492.734 692.328 C 493.394 690.253 494.62 688.272 496.507 686.291 C 499.431 683.367 503.864 680.632 509.712 678.557 C 515.466 676.387 522.446 674.973 530.18 674.407 C 531.218 674.312 532.161 674.124 532.915 673.935 C 533.576 673.841 534.142 673.652 534.519 673.652 L 533.67 667.898 L 533.953 673.652 C 534.425 673.652 534.896 673.652 535.651 673.652 C 538.858 673.558 541.31 670.822 541.216 667.615 C 541.122 664.503 538.481 661.956 535.274 662.05 L 535.274 662.05 Z " fill="rgb(0,0,0)"/><path d=" M 476.51 647.147 C 462.927 654.787 450.005 657.9 438.498 657.9 C 427.462 657.9 417.746 654.976 410.201 650.448 C 402.56 645.827 397.184 639.601 394.449 632.999 C 391.336 625.264 388.506 616.397 388.506 606.305 C 388.506 601.212 389.261 595.741 390.958 589.893 C 393.694 581.121 398.693 571.311 407.654 560.464 C 416.52 549.616 429.254 537.732 447.175 524.998 C 466.135 511.51 477.17 496.607 483.207 483.307 C 489.338 470.007 490.564 458.311 490.564 451.048 C 490.564 446.143 489.998 443.219 489.904 442.936 L 484.245 444.068 L 481.792 449.256 C 494.243 455.198 504.147 462.367 511.976 470.196 C 523.672 481.986 531.029 495.286 535.368 508.397 C 539.707 521.414 541.122 534.147 541.122 544.617 Q 541.122 548.862 540.839 552.446 C 540.65 555.37 542.631 557.917 545.366 558.577 C 546.687 558.86 548.102 559.426 549.705 560.369 C 552.346 561.973 555.27 564.802 558.1 568.293 C 562.25 573.575 565.929 580.554 568.57 587.912 C 571.211 595.269 572.72 602.909 572.72 609.512 Q 572.72 610.549 572.72 611.493 C 572.249 619.605 570.551 626.962 567.91 633.659 L 567.91 633.565 C 564.891 641.299 560.458 647.807 554.61 652.712 C 548.856 657.523 541.688 660.824 532.821 662.239 C 529.709 662.616 527.539 665.446 527.917 668.464 C 528.199 671.577 530.84 673.841 533.953 673.652 C 534.425 673.652 534.896 673.652 535.651 673.652 C 538.858 673.558 541.31 670.822 541.216 667.71 C 541.122 664.503 538.481 661.956 535.274 662.05 C 534.708 662.144 534.142 662.144 533.293 662.144 L 533.67 667.898 L 534.519 673.652 C 545.366 672.048 554.61 667.804 562.062 661.484 C 569.513 655.259 574.984 647.147 578.662 637.903 L 578.662 637.809 C 581.775 629.98 583.756 621.397 584.228 612.153 Q 584.322 610.832 584.322 609.512 C 584.322 603.192 583.19 596.59 581.398 590.081 C 578.662 580.366 574.135 570.839 568.57 563.105 C 565.74 559.237 562.722 555.747 559.232 553.012 C 555.836 550.277 552.063 548.202 547.913 547.258 L 546.592 552.918 L 552.346 553.295 Q 552.723 549.239 552.723 544.617 C 552.723 536.977 551.969 528.205 550.083 518.867 C 547.253 505.001 541.688 489.91 531.689 475.761 C 521.691 461.612 507.165 448.596 486.791 438.786 C 484.81 437.843 482.452 438.126 480.755 439.446 C 479.057 440.767 478.208 442.936 478.585 445.106 L 481.32 444.634 L 478.585 445.106 L 481.32 444.634 L 478.585 445.106 C 478.585 445.106 478.962 447.275 478.962 451.048 C 478.962 456.991 478.019 466.989 472.737 478.496 C 467.455 490.004 457.928 503.115 440.478 515.566 C 415.766 533.204 399.919 549.522 390.204 564.708 C 385.393 572.348 381.998 579.611 379.923 586.591 C 377.847 593.571 376.999 600.174 376.999 606.305 C 376.999 618.567 380.394 628.943 383.79 637.338 C 387.563 646.581 394.731 654.599 404.258 660.352 C 413.69 666.012 425.481 669.408 438.498 669.408 C 452.08 669.408 466.983 665.729 482.17 657.24 C 484.999 655.636 485.942 652.146 484.433 649.411 C 482.83 646.581 479.34 645.638 476.51 647.147 L 476.51 647.147 Z " fill="rgb(0,0,0)"/><path d=" M 730.241 479.911 L 724.393 479.911 C 724.393 547.447 697.039 608.569 652.801 652.807 C 608.563 697.044 547.536 724.398 480 724.398 C 412.464 724.398 351.437 697.044 307.199 652.807 C 262.961 608.569 235.607 547.447 235.607 479.911 C 235.607 412.47 262.961 351.348 307.199 307.11 C 351.437 262.872 412.464 235.519 480 235.519 C 547.536 235.519 608.563 262.872 652.801 307.11 C 697.039 351.348 724.393 412.47 724.393 479.911 L 730.241 479.911 L 735.994 479.911 C 735.994 409.263 707.32 345.217 661.007 298.998 C 614.694 252.685 550.648 224.011 480 224.011 C 409.351 224.011 345.306 252.685 298.993 298.998 C 252.68 345.217 224.006 409.263 224.006 479.911 C 224.006 550.654 252.68 614.7 298.993 661.013 C 345.306 707.326 409.351 736 480 736 C 550.648 736 614.694 707.326 661.007 661.013 C 707.32 614.7 735.994 550.654 735.994 479.911 L 730.241 479.911 Z " fill="rgb(0,0,0)"/></g><path d=" M 0 480 C 0 215.081 215.081 0 480 0 C 744.919 0 960 215.081 960 480 C 960 744.919 744.919 960 480 960 C 215.081 960 0 744.919 0 480 Z  M 224 480 C 224 338.71 338.71 224 480 224 C 621.29 224 736 338.71 736 480 C 736 621.29 621.29 736 480 736 C 338.71 736 224 621.29 224 480 Z " fill-rule="evenodd" fill="rgb(255,255,255)"/><mask id="_mask_6rZr3TcUh9MU3gCpY3Iur6OYsnwWkSNq"><circle vector-effect="non-scaling-stroke" cx="479.99999999999926" cy="479.9999999999995" r="479.99999999999943" fill="white" stroke="none"/></mask><circle vector-effect="non-scaling-stroke" cx="479.99999999999926" cy="479.9999999999995" r="479.99999999999943" fill="none"/><circle vector-effect="non-scaling-stroke" cx="479.99999999999926" cy="479.9999999999995" r="479.99999999999943" fill="none" mask="url(#_mask_6rZr3TcUh9MU3gCpY3Iur6OYsnwWkSNq)" stroke-width="1" stroke="rgb(232,232,232)" stroke-linejoin="miter" stroke-linecap="square" stroke-miterlimit="3"/><path d=" M 0 480 C 0 215.081 215.081 0 480 0 C 744.919 0 960 215.081 960 480 C 960 744.919 744.919 960 480 960 C 215.081 960 0 744.919 0 480 Z  M 224 480 C 224 338.71 338.71 224 480 224 C 621.29 224 736 338.71 736 480 C 736 621.29 621.29 736 480 736 C 338.71 736 224 621.29 224 480 Z " fill-rule="evenodd" fill="rgb(0,0,0)"/><mask id="_mask_2rsHDI9SalUhWdSybgvUu2e1psJh45FO"><circle vector-effect="non-scaling-stroke" cx="479.99999999999955" cy="480.0000000000124" r="255.99999999999966" fill="white" stroke="none"/></mask><circle vector-effect="non-scaling-stroke" cx="479.99999999999955" cy="480.0000000000124" r="255.99999999999966" fill="none"/><circle vector-effect="non-scaling-stroke" cx="479.99999999999955" cy="480.0000000000124" r="255.99999999999966" fill="none" mask="url(#_mask_2rsHDI9SalUhWdSybgvUu2e1psJh45FO)" stroke-width="2" stroke="rgb(0,0,0)" stroke-linejoin="miter" stroke-linecap="square" stroke-miterlimit="3"/></g></g></g></g></svg>