<?xml version="1.0" encoding="UTF-8" standalone="no"?><!-- Generator: Gravit.io --><svg xmlns="http://www.w3.org/2000/svg" xmlns:xlink="http://www.w3.org/1999/xlink" style="isolation:isolate" viewBox="0 0 960 960" width="960pt" height="960pt"><g><g><g><g><path d=" M 737.591 472.684 C 737.591 614.981 622.297 730.275 480 730.275 C 337.703 730.275 222.312 614.981 222.312 472.684 C 222.312 330.388 337.703 214.996 480 214.996 C 622.297 214.996 737.591 330.388 737.591 472.684 Z " fill="rgb(43,79,144)"/><path d=" M 557.705 679.379 C 467.762 679.379 394.913 606.531 394.913 516.587 C 394.913 426.644 467.762 353.796 557.705 353.796 C 590.438 353.796 620.84 363.509 646.288 380.119 C 658.235 383.81 669.308 389.152 679.604 395.757 C 643.083 347.968 585.678 316.983 520.892 316.983 C 410.649 316.983 321.288 406.344 321.288 516.587 C 321.288 626.831 410.649 716.191 520.892 716.191 C 598.985 716.191 666.491 671.22 699.224 605.851 C 694.951 610.027 690.288 613.815 685.432 617.409 C 655.613 655.096 609.573 679.379 557.705 679.379 L 557.705 679.379 Z " fill="rgb(34,105,163)"/><path d=" M 472.035 508.623 C 472.035 434.318 532.256 374.096 606.464 374.096 C 620.354 374.096 633.758 376.233 646.288 380.119 C 620.84 363.509 590.438 353.796 557.705 353.796 C 467.762 353.796 394.913 426.644 394.913 516.587 C 394.913 606.531 467.762 679.379 557.705 679.379 C 609.573 679.379 655.613 655.096 685.432 617.409 C 663.286 633.533 635.992 643.149 606.464 643.149 C 532.256 643.149 472.035 582.928 472.035 508.623 L 472.035 508.623 Z " fill="rgb(39,170,209)"/><path d=" M 247.663 514.256 C 248.246 465.302 266.021 404.595 298.462 365.257 C 330.71 325.919 377.236 296.877 429.103 285.999 C 484.079 274.343 539.347 279.88 588.689 304.454 C 641.917 330.582 679.507 372.931 702.527 424.605 L 702.818 425.382 C 711.269 443.156 702.235 463.457 684.461 471.81 C 666.588 480.163 645.414 472.49 637.061 454.618 C 636.381 453.355 635.798 451.801 635.409 450.538 C 622.782 411.492 596.071 375.942 560.133 352.339 C 524.486 328.542 479.32 316.983 434.543 321.063 C 389.765 324.948 345.474 344.86 311.575 377.302 C 277.482 409.646 254.171 465.691 247.663 514.256 Z " fill="rgb(39,170,225)"/><path d=" M 247.663 514.256 C 247.857 469.673 265.147 413.046 296.617 378.37 C 327.796 343.5 372.768 319.897 421.236 314.652 C 469.607 309.116 520.795 321.84 561.978 351.076 C 603.259 380.021 634.05 425.187 645.705 475.792 L 645.899 477.055 C 649.979 495.898 637.838 514.548 618.994 518.627 C 599.957 522.609 581.21 510.565 577.422 491.528 C 577.034 489.974 576.937 488.225 576.839 486.671 C 574.217 451.801 556.151 417.417 528.371 392.066 C 500.883 366.617 462.808 350.882 422.693 350.202 C 382.675 349.231 341.394 363.703 309.05 391.191 C 276.608 418.485 253.879 469.965 247.663 514.256 L 247.663 514.256 Z " fill="rgb(34,144,207)"/><path d=" M 247.663 514.256 C 247.469 474.335 264.078 422.273 294.286 392.648 C 324.105 362.732 367.328 344.666 411.911 345.249 C 456.494 345.346 502.049 364.286 534.685 397.991 C 567.612 431.306 587.33 479.386 586.358 528.632 L 586.358 530.283 C 585.97 550.195 569.555 566.027 549.643 565.638 C 529.731 565.25 513.899 548.835 514.384 528.923 C 514.384 527.078 514.579 525.038 514.87 523.289 C 520.309 493.082 513.219 459.96 493.89 433.055 C 474.949 406.15 444.159 386.529 409.192 380.993 C 374.419 375.165 336.343 383.81 305.941 406.15 C 275.54 428.198 253.491 474.724 247.663 514.256 L 247.663 514.256 Z " fill="rgb(28,117,188)"/><path d=" M 241.738 516.587 C 241.738 583.51 268.838 644.12 312.741 687.926 C 356.547 731.829 417.156 758.929 484.079 758.929 C 535.947 758.929 584.027 742.611 623.365 714.832 C 662.703 687.052 693.494 647.811 710.686 601.965 C 711.754 599.343 710.686 596.332 708.355 594.778 C 705.926 593.321 702.721 593.709 700.778 595.749 C 698.933 597.789 697.088 599.732 695.145 601.577 C 694.659 602.063 694.271 602.645 693.979 603.228 C 678.05 634.893 653.67 661.701 623.948 680.544 C 594.129 699.388 558.773 710.266 520.892 710.266 C 467.373 710.266 419.002 688.606 383.938 653.542 C 348.873 618.478 327.213 570.107 327.213 516.587 C 327.213 465.205 347.222 418.582 379.858 383.907 C 382.092 381.478 381.995 377.69 379.567 375.456 C 377.236 373.222 373.447 373.319 371.213 375.748 C 336.538 412.56 315.363 462.097 315.363 516.587 C 315.363 573.312 338.383 624.791 375.584 661.992 C 412.688 699.096 464.168 722.213 520.892 722.116 C 561.104 722.213 598.597 710.558 630.261 690.549 C 661.926 670.637 687.666 642.178 704.567 608.57 L 699.224 605.851 L 703.401 610.221 C 705.538 608.085 707.578 606.045 709.52 603.908 L 705.149 599.829 L 699.613 597.789 C 683.198 641.303 653.961 678.699 616.566 705.118 C 579.074 731.538 533.519 747.079 484.079 747.079 C 420.459 747.079 362.86 721.242 321.094 679.573 C 279.425 637.807 253.588 580.208 253.588 516.587 C 253.588 513.285 250.965 510.662 247.663 510.662 C 244.361 510.662 241.738 513.285 241.738 516.587 L 241.738 516.587 Z " fill="rgb(0,0,0)"/><path d=" M 371.213 375.748 C 336.538 412.56 315.363 462.097 315.363 516.587 C 315.363 573.312 338.383 624.791 375.584 661.992 C 412.688 699.096 464.168 722.213 520.892 722.116 C 561.104 722.213 598.597 710.558 630.261 690.549 C 661.926 670.637 687.666 642.178 704.567 608.57 C 705.926 605.948 705.149 602.84 702.818 601.091 C 700.487 599.343 697.282 599.634 695.145 601.577 C 691.065 605.559 686.597 609.153 681.935 612.553 C 681.449 612.941 681.061 613.233 680.769 613.718 C 666.394 631.882 648.134 646.84 627.153 657.233 C 606.27 667.626 582.667 673.454 557.705 673.454 C 514.384 673.454 475.241 655.873 446.781 627.511 C 418.419 599.149 400.838 559.908 400.838 516.587 C 400.838 493.179 405.986 471.033 415.117 451.024 C 424.344 431.112 437.554 413.434 453.775 399.059 C 456.3 396.922 456.494 393.134 454.357 390.706 C 452.123 388.18 448.432 387.986 445.907 390.123 C 428.424 405.567 414.242 424.605 404.335 446.07 C 394.428 467.536 388.988 491.43 388.988 516.587 C 388.988 563.21 407.832 605.365 438.428 635.961 C 468.927 666.46 511.179 685.401 557.705 685.304 C 584.61 685.304 609.961 679.087 632.495 667.82 C 655.03 656.65 674.65 640.623 690.094 621.1 L 685.432 617.409 L 688.928 622.169 C 693.979 618.478 698.836 614.495 703.401 610.221 L 699.224 605.851 L 693.979 603.228 C 678.05 634.893 653.67 661.701 623.948 680.544 C 594.129 699.388 558.773 710.266 520.892 710.266 C 467.373 710.266 419.002 688.606 383.938 653.542 C 348.873 618.478 327.213 570.107 327.213 516.587 C 327.213 465.205 347.222 418.582 379.858 383.907 C 382.092 381.478 381.995 377.69 379.567 375.456 C 377.236 373.222 373.447 373.319 371.213 375.748 L 371.213 375.748 Z " fill="rgb(0,0,0)"/><path d=" M 445.907 390.123 C 428.424 405.567 414.242 424.605 404.335 446.07 C 394.428 467.536 388.988 491.43 388.988 516.587 C 388.988 563.21 407.832 605.365 438.428 635.961 C 468.927 666.46 511.179 685.401 557.705 685.304 C 584.61 685.304 609.961 679.087 632.495 667.82 C 655.03 656.65 674.65 640.623 690.094 621.1 C 691.94 618.769 691.745 615.467 689.705 613.233 C 687.666 611.096 684.363 610.804 681.935 612.553 C 660.663 627.996 634.729 637.224 606.464 637.224 C 571.012 637.224 538.861 622.848 515.55 599.537 C 492.336 576.226 477.96 544.173 477.96 508.623 C 477.96 482.009 485.925 457.435 499.718 436.94 C 501.563 434.22 500.883 430.529 498.163 428.684 C 495.444 426.838 491.753 427.616 489.907 430.335 C 474.852 452.675 466.013 479.678 466.013 508.623 C 466.013 547.378 481.748 582.539 507.197 607.988 C 532.548 633.339 567.709 649.074 606.464 649.074 C 637.352 649.074 665.811 638.972 688.928 622.169 L 685.432 617.409 L 680.769 613.718 C 666.394 631.882 648.134 646.84 627.153 657.233 C 606.27 667.626 582.667 673.454 557.705 673.454 C 514.384 673.454 475.241 655.873 446.781 627.511 C 418.419 599.149 400.838 559.908 400.838 516.587 C 400.838 493.179 405.986 471.033 415.117 451.024 C 424.344 431.112 437.554 413.434 453.775 399.059 C 456.3 396.922 456.494 393.134 454.357 390.706 C 452.123 388.18 448.335 387.986 445.907 390.123 L 445.907 390.123 Z " fill="rgb(0,0,0)"/><path d=" M 253.588 514.353 C 253.879 490.556 258.347 463.651 266.798 438.009 C 275.151 412.366 287.487 387.986 303.028 369.046 C 334.401 330.679 379.858 302.414 430.269 291.827 C 448.238 288.038 466.11 286.096 483.885 286.096 C 519.338 286.096 553.917 293.866 585.97 309.796 L 586.067 309.796 C 612.001 322.617 634.147 339.226 652.602 359.041 C 671.056 378.856 685.82 401.779 697.088 427.033 L 702.527 424.605 L 697.088 426.936 L 697.379 427.713 L 697.476 427.907 C 699.321 431.695 700.099 435.58 700.099 439.368 C 700.099 444.905 698.35 450.247 695.242 455.006 C 692.134 459.766 687.569 463.748 681.935 466.371 C 677.856 468.313 673.582 469.187 669.308 469.187 C 660.663 469.187 652.31 465.399 646.677 458.697 C 644.54 456.172 640.752 455.881 638.226 458.017 C 635.798 460.057 635.409 463.845 637.546 466.371 C 645.511 475.792 657.167 481.135 669.308 481.135 C 675.233 481.135 681.255 479.872 686.986 477.152 C 694.562 473.558 700.778 468.119 705.149 461.611 C 709.52 455.006 711.948 447.333 711.948 439.368 C 711.948 433.832 710.783 428.198 708.258 422.856 L 702.818 425.382 L 708.355 423.148 L 708.063 422.273 L 707.966 422.176 C 696.213 395.854 680.672 371.765 661.246 350.882 C 641.82 330.096 618.509 312.515 591.215 299.111 L 591.312 299.208 C 557.608 282.308 521.086 274.246 483.885 274.246 C 465.236 274.246 446.49 276.189 427.841 280.171 C 374.613 291.438 327.019 321.063 293.897 361.469 C 277.094 381.867 264.272 407.509 255.433 434.318 C 246.692 461.126 242.029 489.099 241.738 514.256 C 241.738 517.462 244.361 520.181 247.663 520.181 C 250.868 520.278 253.588 517.656 253.588 514.353 L 253.588 514.353 Z " fill="rgb(0,0,0)"/><path d=" M 600.734 395.951 C 619.383 419.554 633.078 447.43 639.975 477.152 L 645.705 475.792 L 639.877 476.57 L 639.975 477.735 L 640.072 478.221 Q 640.752 481.329 640.752 484.34 C 640.752 491.042 638.42 497.453 634.341 502.503 C 630.261 507.554 624.531 511.342 617.732 512.799 Q 614.623 513.382 611.612 513.382 C 603.259 513.382 595.294 509.788 589.952 503.766 C 587.718 501.338 583.93 501.144 581.502 503.378 C 579.074 505.514 578.879 509.303 581.113 511.731 C 588.787 520.181 599.859 525.329 611.612 525.329 Q 615.886 525.329 620.16 524.358 C 629.776 522.318 637.935 517.073 643.666 509.885 C 649.299 502.795 652.602 493.859 652.602 484.34 Q 652.602 480.066 651.727 475.792 L 645.899 477.055 L 651.824 476.278 L 651.63 475.015 C 651.63 474.821 651.63 474.724 651.533 474.433 C 644.248 442.962 629.776 413.532 610.155 388.569 C 608.116 385.946 604.328 385.558 601.802 387.598 C 599.18 389.637 598.694 393.328 600.734 395.951 L 600.734 395.951 Z " fill="rgb(0,0,0)"/><path d=" M 558.579 356.03 Q 566.544 361.469 573.828 367.783 C 576.354 370.017 580.045 369.726 582.182 367.2 C 584.318 364.772 584.124 360.984 581.599 358.847 Q 573.828 352.145 565.378 346.22 C 562.755 344.374 559.064 345.054 557.122 347.677 C 555.276 350.397 555.956 354.087 558.579 356.03 Z " fill="rgb(0,0,0)"/><path d=" M 253.588 514.256 C 253.685 492.79 257.959 467.925 266.021 444.516 C 274.083 421.011 286.03 398.865 300.988 382.353 L 301.085 382.255 C 331.196 348.648 374.904 325.628 421.916 320.577 Q 432.697 319.315 443.576 319.315 C 473.201 319.315 503.117 326.114 530.411 339.324 C 533.325 340.781 536.919 339.518 538.376 336.507 C 539.736 333.593 538.473 329.999 535.559 328.639 C 506.711 314.652 474.949 307.465 443.576 307.465 Q 432.017 307.465 420.556 308.727 L 420.653 308.727 C 370.631 314.167 324.396 338.449 292.149 374.388 L 292.246 374.291 C 275.734 392.454 263.301 415.96 254.754 440.631 C 246.303 465.302 241.835 491.236 241.738 514.256 C 241.738 517.559 244.361 520.181 247.663 520.181 C 250.965 520.278 253.588 517.559 253.588 514.256 L 253.588 514.256 Z " fill="rgb(0,0,0)"/><path d=" M 564.698 452.481 C 574.897 475.113 580.433 499.978 580.433 525.329 Q 580.433 526.883 580.433 528.535 L 580.433 530.186 C 580.239 538.442 576.839 545.727 571.4 551.069 C 565.961 556.411 558.579 559.714 550.42 559.714 Q 550.128 559.714 549.74 559.714 C 541.581 559.519 534.199 556.12 528.857 550.68 C 523.515 545.241 520.309 537.859 520.309 529.7 Q 520.309 529.409 520.309 529.02 L 520.309 528.923 C 520.309 527.563 520.504 525.815 520.795 524.261 L 520.698 524.358 C 521.961 517.462 522.543 510.371 522.543 503.281 C 522.543 477.735 514.579 451.704 498.746 429.558 C 488.839 415.474 475.726 403.333 460.671 393.911 C 445.616 384.587 428.424 377.982 410.163 375.068 C 402.878 373.902 395.399 373.319 387.92 373.319 C 358.101 373.319 327.796 382.741 302.445 401.39 L 302.542 401.39 C 294.383 407.218 286.904 414.697 280.202 423.05 C 270.1 435.677 261.65 450.636 255.142 466.176 C 248.634 481.815 244.069 498.035 241.835 513.382 L 247.663 514.256 L 253.588 514.256 Q 253.588 513.965 253.588 513.576 C 253.588 494.539 257.667 472.199 265.341 451.316 C 269.129 440.825 273.888 430.627 279.425 421.399 C 284.961 412.172 291.372 403.819 298.462 396.825 C 312.546 382.644 329.836 371.28 348.873 363.315 C 368.008 355.447 388.794 351.174 409.871 351.174 Q 410.843 351.174 411.814 351.174 L 411.911 351.174 C 433.377 351.174 455.135 355.836 475.435 364.481 C 495.832 373.125 514.676 385.849 530.411 402.167 L 530.508 402.167 C 535.462 407.218 540.124 412.56 544.398 418.291 C 546.437 420.914 550.128 421.399 552.751 419.359 C 555.374 417.417 555.859 413.629 553.917 411.103 C 549.254 404.984 544.301 399.156 538.958 393.814 L 534.685 397.991 L 538.958 393.814 C 522.058 376.428 501.854 362.829 480.097 353.505 C 458.34 344.277 435.028 339.324 411.911 339.226 L 411.911 345.249 L 412.008 339.226 Q 410.94 339.226 409.871 339.226 C 387.143 339.226 364.803 343.889 344.405 352.339 C 323.911 360.789 305.359 373.125 290.109 388.375 C 282.144 396.145 275.248 405.275 269.226 415.28 C 260.29 430.238 253.394 447.042 248.731 464.04 C 244.166 480.94 241.738 498.035 241.738 513.576 Q 241.738 513.965 241.738 514.353 C 241.738 517.364 244.166 519.987 247.274 520.181 C 250.383 520.473 253.102 518.239 253.588 515.13 C 256.405 496.093 263.107 475.113 272.82 456.366 C 277.774 447.042 283.31 438.203 289.526 430.529 C 295.646 422.759 302.348 416.154 309.438 411.006 L 309.535 411.006 C 332.652 393.911 360.626 385.169 387.92 385.169 C 394.719 385.169 401.615 385.752 408.22 386.821 L 408.317 386.821 C 424.927 389.443 440.662 395.465 454.357 404.013 C 468.15 412.56 480.097 423.73 489.033 436.454 L 489.13 436.454 C 503.506 456.463 510.693 480.26 510.693 503.281 C 510.693 509.691 510.111 516.005 509.042 522.221 L 509.042 522.318 C 508.654 524.261 508.459 526.592 508.362 528.923 L 514.384 528.923 L 508.362 528.826 Q 508.362 529.214 508.362 529.7 C 508.362 541.064 512.927 551.457 520.406 559.034 C 527.788 566.61 538.181 571.369 549.546 571.564 Q 549.934 571.564 550.42 571.564 C 561.784 571.564 572.177 566.998 579.753 559.616 C 587.232 552.137 592.089 541.841 592.283 530.38 L 592.283 530.477 L 592.283 528.826 Q 592.38 526.98 592.38 525.329 C 592.38 498.23 586.358 471.713 575.577 447.624 C 574.217 444.613 570.72 443.351 567.709 444.711 C 564.698 445.973 563.435 449.567 564.698 452.481 L 564.698 452.481 Z " fill="rgb(0,0,0)"/><path d=" M 737.591 472.684 L 731.666 472.684 C 731.666 542.133 703.498 605.074 657.944 650.628 C 612.389 696.182 549.546 724.35 480 724.35 C 410.454 724.35 347.611 696.182 301.959 650.628 C 256.405 605.074 228.237 542.133 228.237 472.684 C 228.237 403.139 256.405 340.198 301.959 294.643 C 347.611 249.089 410.454 220.921 480 220.921 C 549.546 220.921 612.389 249.089 657.944 294.643 C 703.498 340.198 731.666 403.139 731.666 472.684 L 737.591 472.684 L 743.613 472.684 C 743.613 399.836 714.085 333.981 666.394 286.29 C 618.703 238.599 552.751 209.071 480 209.071 C 407.249 209.071 341.297 238.599 293.606 286.29 C 245.915 333.981 216.387 399.836 216.387 472.684 C 216.387 545.435 245.915 611.387 293.606 659.078 C 341.297 706.77 407.249 736.297 480 736.297 C 552.751 736.297 618.703 706.77 666.394 659.078 C 714.085 611.387 743.613 545.435 743.613 472.684 L 737.591 472.684 Z " fill="rgb(0,0,0)"/></g><path d=" M 0 480 C 0 215.081 215.081 0 480 0 C 744.919 0 960 215.081 960 480 C 960 744.919 744.919 960 480 960 C 215.081 960 0 744.919 0 480 Z  M 224 480 C 224 338.71 338.71 224 480 224 C 621.29 224 736 338.71 736 480 C 736 621.29 621.29 736 480 736 C 338.71 736 224 621.29 224 480 Z " fill-rule="evenodd" fill="rgb(255,255,255)"/><mask id="_mask_eyL6LcXE92EQdosSnQ7eySOJZemyD9AL"><circle vector-effect="non-scaling-stroke" cx="480.0000000000004" cy="479.9999999999995" r="479.9999999999993" fill="white" stroke="none"/></mask><circle vector-effect="non-scaling-stroke" cx="480.0000000000004" cy="479.9999999999995" r="479.9999999999993" fill="none"/><circle vector-effect="non-scaling-stroke" cx="480.0000000000004" cy="479.9999999999995" r="479.9999999999993" fill="none" mask="url(#_mask_eyL6LcXE92EQdosSnQ7eySOJZemyD9AL)" stroke-width="1" stroke="rgb(232,232,232)" stroke-linejoin="miter" stroke-linecap="square" stroke-miterlimit="3"/><path d=" M 0 480 C 0 215.081 215.081 0 480 0 C 744.919 0 960 215.081 960 480 C 960 744.919 744.919 960 480 960 C 215.081 960 0 744.919 0 480 Z  M 224 480 C 224 338.71 338.71 224 480 224 C 621.29 224 736 338.71 736 480 C 736 621.29 621.29 736 480 736 C 338.71 736 224 621.29 224 480 Z " fill-rule="evenodd" fill="rgb(0,0,0)"/><mask id="_mask_WPjmBtp4g5scdI3KBB7vcwp1FDdgeqHH"><circle vector-effect="non-scaling-stroke" cx="479.99999999999955" cy="480.00000000000284" r="255.99999999999966" fill="white" stroke="none"/></mask><circle vector-effect="non-scaling-stroke" cx="479.99999999999955" cy="480.00000000000284" r="255.99999999999966" fill="none"/><circle vector-effect="non-scaling-stroke" cx="479.99999999999955" cy="480.00000000000284" r="255.99999999999966" fill="none" mask="url(#_mask_WPjmBtp4g5scdI3KBB7vcwp1FDdgeqHH)" stroke-width="2" stroke="rgb(0,0,0)" stroke-linejoin="miter" stroke-linecap="square" stroke-miterlimit="3"/></g></g></g></svg>