<?xml version="1.0" encoding="UTF-8" standalone="no"?><!-- Generator: Gravit.io --><svg xmlns="http://www.w3.org/2000/svg" xmlns:xlink="http://www.w3.org/1999/xlink" style="isolation:isolate" viewBox="0 0 960 960" width="960pt" height="960pt"><g><g><g><g><path d=" M 730.902 480 C 730.902 618.187 618.845 730.152 480.66 730.152 C 342.475 730.152 230.418 618.187 230.418 480 C 230.418 341.813 342.475 229.754 480.66 229.754 C 618.845 229.754 730.902 341.813 730.902 480 Z " fill="rgb(89,193,217)"/><path d=" M 366.245 358.603 C 384.733 358.603 402.56 362.565 418.595 369.073 C 410.766 384.825 410.012 402.37 410.012 404.351 C 360.02 393.881 311.254 421.895 298.237 460.663 C 275.788 527.257 324.837 569.421 347.758 552.348 C 340.872 546.028 335.495 537.916 333.043 528.2 C 324.365 495.375 344.173 462.078 376.715 453.4 C 417.652 442.741 459.532 467.266 470.19 508.109 C 473.114 519.428 473.869 530.747 472.831 541.689 C 470.945 561.403 462.739 579.891 450.099 594.794 C 444.911 600.737 438.969 606.113 432.366 610.735 C 423.405 617.055 413.124 621.866 401.805 624.884 L 401.805 625.073 C 390.581 627.997 378.602 629.695 366.245 629.695 C 291.352 629.695 230.701 569.138 230.701 494.149 C 230.701 419.254 291.352 358.603 366.245 358.603 Z " fill="rgb(142,230,209)"/><path d=" M 550.743 610.641 C 539.141 631.298 516.975 645.07 491.602 645.07 C 466.7 645.07 445.1 631.77 433.121 611.867 L 432.366 610.735 C 438.969 606.113 444.911 600.737 450.099 594.794 C 456.23 604.793 467.172 611.396 479.811 611.396 C 494.62 611.396 507.165 602.34 512.353 589.512 C 523.389 598.379 536.312 605.642 550.743 610.641 L 550.743 610.641 Z " fill="rgb(89,193,217)"/><path d=" M 512.353 589.512 C 507.165 602.34 494.62 611.396 479.811 611.396 C 467.172 611.396 456.23 604.793 450.099 594.794 C 462.739 579.891 470.945 561.403 472.831 541.689 C 483.018 560.177 495.846 576.589 512.353 589.512 Z " fill="rgb(131,219,203)"/><path d=" M 515.089 358.603 C 536.783 358.603 556.025 368.318 569.042 383.41 C 562.722 387.655 556.968 392.843 552.064 398.597 L 551.309 397.937 C 521.22 404.068 498.865 430.762 498.865 462.361 C 498.865 470.473 500.28 478.019 502.921 485.188 C 486.32 460.852 470.19 435.856 449.156 421.424 C 447.741 420.48 446.326 419.632 444.911 418.783 C 450.288 384.825 479.717 358.603 515.089 358.603 L 515.089 358.603 Z " fill="rgb(142,230,209)"/><path d=" M 587.247 512.542 C 615.544 517.353 642.709 498.394 647.52 470.001 Q 648.463 465.38 647.991 460.663 L 648.18 460.663 C 681.193 490.753 650.821 559.705 586.303 554.234 C 548.951 551.122 525.653 518.768 502.921 485.377 L 502.921 485.188 C 500.28 478.019 498.865 470.473 498.865 462.361 C 498.865 430.762 521.22 404.068 551.309 397.937 L 552.064 398.597 C 543.197 409.256 536.783 422.273 534.236 436.799 C 528.011 472.36 551.686 506.223 587.247 512.542 Z " fill="rgb(81,175,196)"/><path d=" M 629.032 370.677 C 687.702 381.147 732.128 432.46 732.128 494.149 C 732.128 563.573 675.911 619.696 606.677 619.696 C 585.643 619.696 567.156 616.584 550.743 610.641 C 536.312 605.642 523.389 598.379 512.353 589.512 C 495.846 576.589 483.018 560.177 472.831 541.689 C 473.869 530.747 473.114 519.428 470.19 508.109 C 459.532 467.266 417.652 442.741 376.715 453.4 C 344.173 462.078 324.365 495.375 333.043 528.2 C 335.495 537.916 340.872 546.028 347.758 552.348 C 324.837 569.421 275.788 527.257 298.237 460.663 C 311.254 421.895 360.02 393.881 410.012 404.351 C 421.708 406.898 433.498 411.614 444.911 418.783 C 446.326 419.632 447.741 420.48 449.156 421.424 C 470.19 435.856 486.32 460.852 502.921 485.188 L 502.921 485.377 C 525.653 518.768 548.951 551.122 586.303 554.234 C 650.821 559.705 681.193 490.753 648.18 460.663 L 647.991 460.663 Q 648.463 465.38 647.52 470.001 C 642.709 498.394 615.544 517.353 587.247 512.542 C 551.686 506.223 528.011 472.36 534.236 436.799 C 536.783 422.273 543.197 409.256 552.064 398.597 C 556.968 392.843 562.722 387.655 569.042 383.41 C 574.324 379.826 580.172 376.808 586.303 374.45 C 599.414 369.545 613.846 368.035 628.56 370.677 L 629.032 370.677 Z " fill="rgb(89,193,217)"/><path d=" M 398.693 619.414 C 387.845 622.337 376.432 623.941 364.642 623.941 C 328.798 623.941 296.351 609.415 272.864 585.928 C 249.377 562.441 234.852 530.087 234.852 494.243 C 234.852 458.399 249.377 425.951 272.864 402.464 C 296.351 378.977 328.798 364.451 364.642 364.451 C 382.563 364.451 399.636 368.035 415.105 374.638 C 418.029 375.864 421.425 374.544 422.651 371.62 C 423.877 368.601 422.557 365.206 419.633 363.979 C 402.748 356.811 384.072 352.849 364.642 352.849 C 325.591 352.849 290.22 368.696 264.658 394.258 C 239.096 419.82 223.344 455.192 223.344 494.243 C 223.344 533.2 239.096 568.572 264.658 594.134 C 290.22 619.696 325.591 635.449 364.642 635.449 C 377.47 635.449 389.92 633.751 401.711 630.544 C 404.824 629.695 406.616 626.582 405.767 623.469 C 405.012 620.357 401.805 618.564 398.693 619.414 L 398.693 619.414 Z " fill="rgb(0,0,0)"/><path d=" M 626.391 376.336 C 654.405 381.335 679.024 396.144 696.568 416.99 C 714.207 437.836 724.771 464.719 724.771 494.243 C 724.771 527.352 711.377 557.253 689.683 578.853 C 667.988 600.548 638.087 613.943 605.074 613.943 C 588.756 613.943 574.136 611.962 560.93 608.377 C 541.028 602.907 524.427 593.851 510.467 581.966 C 496.507 570.081 485.188 555.366 476.321 538.859 C 474.718 536.029 471.228 534.992 468.492 536.501 C 465.663 538.01 464.625 541.5 466.134 544.33 C 478.774 567.817 496.129 588.192 519.144 602.623 C 530.652 609.887 543.574 615.546 557.817 619.508 C 572.155 623.375 587.813 625.545 605.074 625.545 C 641.294 625.545 674.119 610.83 697.889 587.06 C 721.658 563.29 736.373 530.464 736.373 494.243 C 736.373 461.984 724.677 432.366 705.435 409.539 C 686.098 386.712 659.122 370.488 628.466 365.017 C 625.353 364.451 622.335 366.526 621.769 369.639 C 621.203 372.752 623.278 375.77 626.391 376.336 L 626.391 376.336 Z " fill="rgb(0,0,0)"/><path d=" M 544.14 607.811 C 538.764 617.244 531.029 625.167 521.786 630.733 C 512.448 636.203 501.6 639.411 489.998 639.411 C 478.585 639.411 468.021 636.298 458.871 631.015 C 449.722 625.733 441.987 618.093 436.611 608.943 C 434.913 606.208 431.423 605.359 428.688 606.962 C 425.952 608.566 425.009 612.15 426.613 614.886 C 433.121 625.639 442.176 634.694 453.023 641.014 C 463.871 647.334 476.51 650.918 489.998 650.918 C 503.77 650.918 516.692 647.145 527.634 640.637 C 538.67 634.034 547.819 624.696 554.139 613.565 C 555.742 610.735 554.799 607.245 551.969 605.642 C 549.234 604.133 545.65 605.076 544.14 607.811 Z " fill="rgb(0,0,0)"/><path d=" M 401.617 630.544 C 424.443 624.507 443.402 611.301 456.702 593.851 C 469.907 576.495 477.453 554.989 477.453 532.445 C 477.453 523.956 476.416 515.278 474.152 506.694 C 469.341 488.206 458.588 472.831 444.44 462.078 C 430.291 451.325 412.841 445.194 394.542 445.194 C 387.657 445.194 380.677 446.043 373.697 447.835 C 358.699 451.797 346.154 460.569 337.382 472.077 C 328.61 483.584 323.611 497.733 323.611 512.637 C 323.611 518.296 324.365 523.956 325.874 529.615 C 329.081 541.972 336.25 552.159 345.588 559.328 C 355.02 566.497 366.622 570.553 378.79 570.553 C 383.318 570.553 388.034 569.987 392.656 568.761 C 402.748 566.119 411.143 560.271 416.992 552.536 C 422.934 544.802 426.235 535.275 426.235 525.276 C 426.235 521.503 425.764 517.73 424.82 513.957 L 424.82 513.863 C 422.651 505.562 417.746 498.582 411.332 493.772 C 405.012 488.961 397.089 486.131 388.883 486.131 C 385.77 486.131 382.658 486.508 379.45 487.357 C 376.338 488.206 373.414 489.621 370.867 491.319 C 367 494.054 363.887 497.545 361.623 501.506 C 359.454 505.468 358.133 509.901 358.133 514.429 C 358.133 516.598 358.416 518.862 359.076 521.032 C 359.737 523.201 360.774 525.276 362.284 527.163 C 364.17 529.71 367.754 530.276 370.301 528.295 C 372.848 526.408 373.414 522.824 371.527 520.277 Q 370.49 518.956 370.112 517.542 Q 369.641 516.127 369.641 514.429 C 369.641 512.92 369.924 511.316 370.584 509.618 C 371.527 507.071 373.131 504.619 375.206 502.638 C 377.281 500.657 379.733 499.242 382.374 498.582 Q 385.676 497.733 388.883 497.733 C 394.542 497.733 400.013 499.62 404.352 502.921 C 408.785 506.317 412.087 511.033 413.596 516.881 L 413.596 516.787 Q 414.728 521.126 414.728 525.276 C 414.728 532.728 412.181 539.802 407.842 545.556 C 403.503 551.31 397.278 555.649 389.732 557.63 C 386.053 558.573 382.374 559.045 378.79 559.045 C 369.169 559.045 360.02 555.838 352.568 550.178 C 345.211 544.519 339.551 536.501 337.005 526.691 C 335.778 521.975 335.212 517.259 335.212 512.637 C 335.212 500.374 339.363 488.584 346.531 479.057 C 353.794 469.53 364.17 462.361 376.621 459.06 C 382.658 457.456 388.694 456.702 394.542 456.702 C 410.2 456.702 425.292 461.984 437.46 471.228 C 449.533 480.566 458.777 493.677 463.022 509.618 C 465.002 517.259 465.946 524.899 465.946 532.445 C 465.946 552.348 459.249 571.402 447.458 586.871 C 435.762 602.246 418.972 614.037 398.693 619.319 C 395.674 620.168 393.788 623.281 394.637 626.394 C 395.391 629.506 398.598 631.298 401.617 630.544 L 401.617 630.544 Z " fill="rgb(0,0,0)"/><path d=" M 627.995 365.017 Q 620.354 363.696 612.808 363.696 C 591.963 363.696 572.343 371.148 557.063 383.882 C 541.782 396.616 530.652 414.727 526.973 435.856 Q 525.841 442.081 525.841 448.307 C 525.841 465.191 531.973 481.132 542.254 493.583 C 552.63 506.034 567.344 515.089 584.605 518.108 Q 589.699 519.051 594.698 519.051 C 608.47 519.051 621.486 514.052 631.673 505.562 C 641.86 497.073 649.217 485.094 651.67 471.039 Q 652.425 466.889 652.425 462.833 C 652.425 451.419 648.369 440.76 641.389 432.46 C 634.503 424.065 624.599 418.028 613.091 416.047 Q 609.696 415.481 606.3 415.481 C 596.962 415.481 588.19 418.783 581.304 424.536 C 574.418 430.196 569.419 438.308 567.721 447.835 Q 567.25 450.665 567.25 453.494 C 567.25 461.229 570.08 468.587 574.796 474.246 C 579.512 479.906 586.303 484.056 594.132 485.471 Q 596.113 485.848 598.094 485.848 C 601.206 485.848 604.319 485.188 607.055 484.15 C 611.299 482.641 615.072 480.094 617.902 476.699 C 619.411 475.001 620.543 473.114 621.392 471.039 C 622.335 468.87 622.807 466.606 622.807 464.248 C 622.807 462.455 622.524 460.663 621.958 458.965 C 621.015 455.853 617.808 454.249 614.695 455.192 C 611.676 456.136 609.979 459.343 610.922 462.455 Q 611.299 463.304 611.205 464.248 C 611.205 465.285 610.922 466.323 610.356 467.455 C 609.413 469.153 607.621 470.945 605.357 472.265 C 603.187 473.492 600.546 474.246 598.094 474.246 Q 597.056 474.246 596.113 474.057 C 591.02 473.209 586.775 470.567 583.662 466.889 C 580.549 463.21 578.852 458.494 578.852 453.494 Q 578.852 451.702 579.135 449.816 C 580.267 443.119 583.757 437.459 588.661 433.403 C 593.472 429.347 599.697 426.989 606.3 426.989 Q 608.658 426.989 611.111 427.461 C 619.883 428.97 627.24 433.497 632.522 439.817 C 637.804 446.137 640.917 454.249 640.917 462.833 Q 640.917 465.851 640.351 469.058 C 638.37 480.377 632.428 489.904 624.316 496.696 C 616.11 503.487 605.734 507.449 594.698 507.449 Q 590.642 507.449 586.586 506.788 C 572.155 504.242 559.893 496.696 551.215 486.226 C 542.443 475.755 537.443 462.455 537.443 448.307 Q 537.443 443.119 538.292 437.836 C 541.594 419.443 551.12 403.879 564.42 392.749 C 577.72 381.713 594.793 375.204 612.808 375.204 Q 619.317 375.204 626.014 376.43 C 629.126 376.996 632.145 374.827 632.711 371.714 C 633.277 368.601 631.202 365.583 627.995 365.017 L 627.995 365.017 Z " fill="rgb(0,0,0)"/><path d=" M 422.84 371.808 C 429.159 356.811 439.818 343.982 453.212 334.927 C 466.606 325.872 482.735 320.59 500.185 320.59 C 518.39 320.59 535.274 326.438 549.045 336.342 C 562.817 346.246 573.475 360.206 579.229 376.43 C 580.361 379.449 583.662 381.052 586.586 379.92 C 589.605 378.883 591.208 375.581 590.171 372.563 C 583.568 354.075 571.494 338.134 555.837 326.909 C 540.179 315.685 520.937 308.987 500.185 308.987 C 480.377 308.987 461.984 315.024 446.798 325.306 C 431.517 335.587 419.444 350.208 412.181 367.281 C 410.955 370.299 412.275 373.695 415.199 374.921 C 418.218 376.147 421.519 374.732 422.84 371.808 L 422.84 371.808 Z " fill="rgb(0,0,0)"/><path d=" M 342.664 547.632 Q 340.778 548.952 338.702 549.612 Q 336.627 550.273 334.269 550.273 C 330.685 550.273 326.535 549.141 322.29 546.688 C 315.876 543.01 309.462 536.501 304.651 527.54 C 299.841 518.485 296.634 507.166 296.634 493.866 C 296.634 484.339 298.237 473.869 302.01 462.55 C 304.557 455.004 308.707 447.741 313.989 441.232 C 322.007 431.422 332.76 423.027 345.305 417.179 C 357.85 411.331 372.093 407.935 386.902 407.935 C 405.767 407.935 425.575 413.406 444.251 426.234 C 455.853 434.252 466.323 446.043 476.227 459.437 C 483.773 469.435 490.942 480.377 498.393 491.319 C 509.523 507.543 521.031 523.673 534.708 536.407 C 541.499 542.727 548.951 548.292 557.157 552.348 C 565.363 556.498 574.418 559.234 584.228 559.988 Q 588.095 560.366 591.774 560.366 C 603.093 560.366 613.469 558.102 622.618 554.329 C 636.295 548.575 647.048 539.142 654.5 528.2 C 661.857 517.164 665.913 504.619 665.913 492.357 C 665.913 485.66 664.687 479.151 662.14 473.02 C 659.593 466.889 655.726 461.135 650.538 456.419 C 648.18 454.249 644.501 454.438 642.426 456.796 C 640.257 459.154 640.445 462.833 642.803 464.908 C 646.671 468.587 649.595 472.737 651.481 477.359 C 653.368 481.981 654.311 487.074 654.311 492.357 C 654.311 498.865 652.896 505.657 650.066 512.165 C 645.916 521.975 638.653 531.125 628.749 537.822 C 618.939 544.519 606.583 548.763 591.774 548.763 Q 588.567 548.763 585.171 548.48 C 577.814 547.915 571.023 546.028 564.703 543.198 C 559.138 540.651 553.95 537.35 548.857 533.388 C 540.085 526.503 531.973 517.542 524.238 507.449 C 512.542 492.451 501.695 475.095 490.093 458.777 C 484.245 450.665 478.302 442.741 471.794 435.573 C 465.38 428.498 458.4 421.99 450.759 416.707 C 430.197 402.559 408.031 396.427 386.902 396.427 C 364.83 396.427 343.985 403.125 327.101 414.161 C 318.611 419.726 311.16 426.423 305.029 433.969 C 298.898 441.421 294.087 449.816 291.069 458.871 C 286.919 471.322 285.032 483.018 285.032 493.866 C 285.032 514.052 291.54 530.936 300.784 542.727 C 305.5 548.669 310.782 553.385 316.536 556.687 C 322.196 559.988 328.232 561.875 334.269 561.875 C 336.91 561.875 339.646 561.497 342.287 560.649 C 344.834 559.8 347.286 558.573 349.55 556.876 C 352.096 554.989 352.662 551.31 350.682 548.763 C 348.795 546.217 345.211 545.745 342.664 547.632 L 342.664 547.632 Z " fill="rgb(0,0,0)"/><path d=" M 414.162 404.539 L 410.766 404.539 L 414.162 404.539 L 410.766 404.539 L 414.162 404.539 C 414.162 403.879 414.35 397.842 415.954 390.013 C 416.803 386.146 417.935 381.807 419.633 377.468 C 421.236 373.223 423.405 368.979 426.047 365.206 C 427.933 362.565 427.273 358.98 424.632 357.094 C 422.085 355.301 418.501 355.867 416.614 358.508 C 413.124 363.508 410.577 368.79 408.597 373.978 C 405.673 381.807 404.258 389.259 403.409 394.918 C 402.654 400.483 402.654 404.256 402.654 404.351 C 402.56 407.558 405.107 410.199 408.314 410.293 C 411.521 410.293 414.067 407.746 414.162 404.539 L 414.162 404.539 Z " fill="rgb(0,0,0)"/><path d=" M 448.967 419.632 C 451.42 404.068 459.437 390.202 470.851 380.298 C 482.358 370.393 497.261 364.451 513.579 364.451 C 523.483 364.451 532.916 366.62 541.311 370.582 C 549.706 374.544 557.157 380.203 563.1 387.184 C 565.175 389.636 568.853 389.919 571.306 387.844 C 573.664 385.769 573.947 382.09 571.872 379.637 C 564.797 371.431 556.12 364.734 546.216 360.112 C 536.312 355.49 525.181 352.849 513.579 352.849 C 494.337 352.849 476.793 359.923 463.305 371.62 C 449.816 383.222 440.478 399.446 437.554 417.934 C 437.082 421.046 439.252 423.971 442.365 424.536 C 445.572 425.008 448.496 422.839 448.967 419.632 L 448.967 419.632 Z " fill="rgb(0,0,0)"/><path d=" M 505.279 587.343 C 503.109 592.719 499.431 597.341 494.715 600.548 C 489.998 603.755 484.339 605.642 478.208 605.642 C 472.926 605.642 468.021 604.321 463.776 601.869 C 459.532 599.416 455.947 595.926 453.401 591.776 C 451.703 589.04 448.118 588.192 445.383 589.89 C 442.742 591.587 441.893 595.172 443.497 597.813 C 447.081 603.661 452.08 608.472 458.023 611.867 C 463.965 615.263 470.851 617.244 478.208 617.244 C 486.791 617.244 494.715 614.603 501.317 610.075 C 507.826 605.547 513.013 599.133 516.032 591.682 C 517.164 588.663 515.749 585.362 512.825 584.136 C 509.806 582.909 506.411 584.419 505.279 587.343 L 505.279 587.343 Z " fill="rgb(0,0,0)"/><path d=" M 506.694 483.396 C 504.241 476.793 502.921 469.813 502.921 462.361 C 502.921 447.929 508.109 434.629 516.598 424.253 C 525.181 413.878 537.16 406.426 550.837 403.596 C 553.95 403.03 555.931 399.917 555.365 396.805 C 554.705 393.692 551.686 391.711 548.479 392.371 C 532.161 395.673 517.918 404.539 507.731 416.896 C 497.544 429.253 491.413 445.1 491.413 462.361 C 491.413 471.228 493.017 479.623 495.941 487.357 C 496.978 490.376 500.374 491.885 503.298 490.753 C 506.316 489.716 507.826 486.32 506.694 483.396 L 506.694 483.396 Z " fill="rgb(0,0,0)"/><path d=" M 730.902 480 L 725.054 480 C 725.054 547.443 697.7 608.566 653.462 652.805 C 609.224 697.043 548.196 724.398 480.66 724.398 C 413.124 724.398 352.096 697.043 307.764 652.805 C 263.526 608.566 236.172 547.443 236.172 480 C 236.172 412.463 263.526 351.34 307.764 307.101 C 352.096 262.862 413.124 235.508 480.66 235.508 C 548.196 235.508 609.224 262.862 653.462 307.101 C 697.7 351.34 725.054 412.463 725.054 480 L 730.902 480 L 736.656 480 C 736.656 409.256 707.981 345.303 661.668 298.989 C 615.355 252.675 551.309 224 480.66 224 C 410.012 224 345.965 252.675 299.652 298.989 C 253.339 345.303 224.665 409.256 224.665 480 C 224.665 550.65 253.339 614.697 299.652 661.011 C 345.965 707.325 410.012 736 480.66 736 C 551.309 736 615.355 707.325 661.668 661.011 C 707.981 614.697 736.656 550.65 736.656 480 L 730.902 480 Z " fill="rgb(0,0,0)"/></g><path d=" M 0 480 C 0 215.081 215.081 0 480 0 C 744.919 0 960 215.081 960 480 C 960 744.919 744.919 960 480 960 C 215.081 960 0 744.919 0 480 Z  M 224 480 C 224 338.71 338.71 224 480 224 C 621.29 224 736 338.71 736 480 C 736 621.29 621.29 736 480 736 C 338.71 736 224 621.29 224 480 Z " fill-rule="evenodd" fill="rgb(255,255,255)"/><mask id="_mask_diclTbP1pnfgPw1fxNdgcdAZeByF0cEb"><circle vector-effect="non-scaling-stroke" cx="479.99999999999926" cy="479.9999999999995" r="479.99999999999943" fill="white" stroke="none"/></mask><circle vector-effect="non-scaling-stroke" cx="479.99999999999926" cy="479.9999999999995" r="479.99999999999943" fill="none"/><circle vector-effect="non-scaling-stroke" cx="479.99999999999926" cy="479.9999999999995" r="479.99999999999943" fill="none" mask="url(#_mask_diclTbP1pnfgPw1fxNdgcdAZeByF0cEb)" stroke-width="1" stroke="rgb(232,232,232)" stroke-linejoin="miter" stroke-linecap="square" stroke-miterlimit="3"/><mask id="_mask_JqO9hEumsdZLPsnqwJfgPS3hV0PvaIoC"><circle vector-effect="non-scaling-stroke" cx="479.99999999999955" cy="480.00000000000284" r="255.99999999999966" fill="white" stroke="none"/></mask><circle vector-effect="non-scaling-stroke" cx="479.99999999999955" cy="480.00000000000284" r="255.99999999999966" fill="none"/><circle vector-effect="non-scaling-stroke" cx="479.99999999999955" cy="480.00000000000284" r="255.99999999999966" fill="none" mask="url(#_mask_JqO9hEumsdZLPsnqwJfgPS3hV0PvaIoC)" stroke-width="2" stroke="rgb(0,0,0)" stroke-linejoin="miter" stroke-linecap="square" stroke-miterlimit="3"/></g></g></g></svg>