<?xml version="1.0" encoding="UTF-8" standalone="no"?><!-- Generator: Gravit.io --><svg xmlns="http://www.w3.org/2000/svg" xmlns:xlink="http://www.w3.org/1999/xlink" style="isolation:isolate" viewBox="0 0 960 960" width="960pt" height="960pt"><g><g><g><g><path d=" M 730.152 480 C 730.152 618.187 618.187 730.152 480 730.152 C 341.813 730.152 229.754 618.187 229.754 480 C 229.754 341.813 341.813 229.754 480 229.754 C 618.187 229.754 730.152 341.813 730.152 480 Z " fill="rgb(193,227,116)"/><path d=" M 356.339 730.812 L 356.339 450.287 C 356.339 380.109 409.916 322.759 475.284 322.759 C 540.746 322.759 594.228 380.109 594.228 450.287 L 594.228 730.812 L 356.339 730.812 Z " fill="rgb(76,135,53)"/><path d=" M 453.683 729.586 L 453.683 484.433 C 453.683 433.78 492.451 392.277 539.708 392.277 C 586.965 392.277 625.639 433.78 625.639 484.433 L 625.639 729.586 L 453.683 729.586 Z " fill="rgb(225,254,160)"/><path d=" M 317.854 729.586 L 317.854 468.775 C 317.854 438.402 340.964 413.595 369.356 413.595 C 397.654 413.595 420.858 438.402 420.858 468.775 L 420.858 729.586 L 317.854 729.586 Z " fill="rgb(60,197,80)"/><path d=" M 243.808 730.812 L 243.808 582.721 C 243.808 523.767 288.802 475.661 343.699 475.661 C 398.597 475.661 443.59 523.767 443.59 582.721 L 443.59 730.812 L 243.808 730.812 Z " fill="rgb(193,227,116)"/><path d=" M 486.603 730.812 L 486.603 564.139 C 486.603 496.507 538.293 441.232 601.397 441.232 C 664.501 441.232 716.097 496.507 716.097 564.139 L 716.097 730.812 L 486.603 730.812 Z " fill="rgb(193,227,116)"/><path d=" M 552.442 730.812 L 552.442 597.907 C 552.442 561.78 580.08 532.256 613.754 532.256 C 647.428 532.256 674.971 561.78 674.971 597.907 L 674.971 730.812 L 552.442 730.812 Z " fill="rgb(225,254,160)"/><path d=" M 300.027 730.812 L 300.027 596.964 C 300.027 566.308 323.419 541.217 352 541.217 C 380.581 541.217 404.068 566.308 404.068 596.964 L 404.068 730.812 L 300.027 730.812 Z " fill="rgb(225,254,160)"/><path d=" M 260.032 729.586 L 260.032 615.074 C 260.032 584.702 283.142 559.894 311.534 559.894 C 339.832 559.894 363.036 584.702 363.036 615.074 L 363.036 729.586 L 260.032 729.586 Z " fill="rgb(60,197,80)"/><path d=" M 510.656 729.586 L 510.656 615.074 C 510.656 584.702 533.86 559.894 562.252 559.894 C 590.55 559.894 613.754 584.702 613.754 615.074 L 613.754 729.586 L 510.656 729.586 Z " fill="rgb(76,135,53)"/><path d=" M 721.851 564.139 L 721.851 730.152 C 721.851 733.359 719.304 736 716.097 736 C 712.89 736 710.343 733.359 710.343 730.152 L 710.343 564.139 C 710.343 539.897 703.363 517.353 691.573 498.676 C 679.782 479.906 662.992 465.002 643.561 456.136 C 630.544 450.287 616.301 446.986 601.397 446.986 C 593.757 446.986 586.399 447.835 579.231 449.438 C 576.118 450.099 573.005 448.212 572.345 445.1 C 571.59 441.987 573.571 438.874 576.684 438.214 C 584.607 436.421 592.908 435.478 601.397 435.478 Q 603.472 435.478 605.642 435.573 C 599.322 425.668 591.116 417.273 581.683 410.954 C 569.421 402.747 554.989 398.031 539.708 398.031 C 528.672 398.031 518.202 400.483 508.675 404.822 C 499.148 409.161 490.47 415.481 483.207 423.31 C 468.587 438.968 459.437 460.569 459.437 484.433 L 459.437 553.102 C 459.437 556.309 456.89 558.951 453.683 558.951 C 450.476 558.951 447.929 556.309 447.929 553.102 L 447.929 484.433 C 447.929 464.342 453.683 445.571 463.587 429.913 C 473.397 414.255 487.452 401.804 503.864 394.258 C 514.901 389.259 526.974 386.523 539.708 386.523 C 557.441 386.523 574.043 391.994 588.097 401.332 C 597.247 407.464 605.265 415.198 611.867 424.253 L 611.867 352.472 C 611.867 341.341 608.755 330.965 603.284 322.382 C 597.907 313.798 590.267 307.007 581.4 302.951 C 575.458 300.31 568.949 298.8 562.252 298.8 C 558.573 298.8 555.083 299.272 551.688 300.027 C 548.575 300.781 545.462 298.8 544.707 295.782 C 543.953 292.669 545.934 289.556 549.046 288.802 C 553.291 287.764 557.724 287.293 562.252 287.293 C 570.647 287.293 578.759 289.085 586.116 292.48 C 593.474 295.782 600.077 300.592 605.642 306.535 C 616.678 318.42 623.469 334.644 623.469 352.472 L 623.469 437.648 C 632.053 439.346 640.448 442.081 648.277 445.665 C 662.709 452.268 675.726 461.701 686.668 473.397 C 708.457 496.79 721.851 528.861 721.851 564.139 Z  M 426.612 512.92 C 440.855 532.162 449.344 556.498 449.344 582.721 L 449.344 730.152 C 449.344 733.359 446.797 736 443.59 736 C 440.383 736 437.836 733.359 437.836 730.152 L 437.836 582.721 C 437.836 561.686 431.8 542.255 421.612 526.031 Q 419.16 522.164 416.424 518.674 Q 416.236 518.391 416.047 518.108 C 406.426 505.657 394.069 495.752 380.109 489.338 C 368.884 484.245 356.622 481.415 343.699 481.415 C 335.493 481.415 327.475 482.547 319.835 484.716 Q 319.363 484.905 318.986 484.999 Q 312.949 486.791 307.29 489.338 C 296.065 494.432 285.972 501.884 277.388 511.033 C 260.315 529.332 249.562 554.706 249.562 582.721 L 249.562 730.152 C 249.562 733.359 247.015 736 243.808 736 C 240.601 736 238.055 733.359 238.055 730.152 L 238.055 582.721 C 238.055 559.517 244.657 537.822 256.071 519.9 C 267.39 501.884 283.52 487.452 302.573 478.868 Q 307.195 476.699 312.006 475.095 L 312.006 468.775 C 312.006 456.324 315.59 444.628 321.721 434.912 C 327.947 425.197 336.625 417.368 346.906 412.651 Q 351.623 410.576 356.622 409.35 C 364.545 383.316 379.826 360.678 399.917 344.265 C 420.763 327.192 446.986 317.005 475.284 317.005 C 486.697 317.005 497.733 318.609 508.298 321.721 C 511.41 315.59 515.372 309.931 520.088 305.214 C 522.352 302.951 526.031 302.856 528.295 305.12 C 530.559 307.384 530.559 311.063 528.295 313.326 C 524.805 316.911 521.692 321.061 519.239 325.589 C 531.69 330.588 543.198 337.757 553.385 346.529 C 555.744 348.604 556.027 352.189 553.951 354.641 C 551.876 357.094 548.198 357.282 545.839 355.207 C 536.124 346.906 525.088 340.209 513.203 335.587 C 501.318 331.06 488.584 328.513 475.284 328.513 C 449.816 328.513 426.234 337.757 407.181 353.226 C 390.202 367.092 376.902 385.957 369.262 407.841 Q 369.262 407.841 369.356 407.841 C 376.242 407.841 382.939 409.161 389.164 411.614 C 395.296 413.972 400.955 417.556 405.86 421.895 C 415.764 430.668 422.839 442.836 425.48 456.607 C 426.046 459.72 424.065 462.738 420.858 463.399 C 417.745 463.965 414.727 461.889 414.161 458.777 C 412.463 450.287 408.878 442.647 403.785 436.327 C 398.691 430.102 392.183 425.197 384.92 422.367 C 380.015 420.386 374.827 419.349 369.356 419.349 Q 365.96 419.349 362.753 419.914 Q 362.187 420.103 361.527 420.103 Q 356.433 421.046 351.717 423.216 C 346.246 425.668 341.341 429.253 337.191 433.78 C 328.796 442.741 323.608 455.098 323.608 468.775 L 323.608 471.982 C 330.116 470.567 336.814 469.907 343.699 469.907 C 358.32 469.907 372.186 473.114 384.92 478.868 C 396.05 483.962 406.237 491.036 415.104 499.714 L 415.104 487.357 C 415.104 484.15 417.651 481.509 420.858 481.509 C 424.065 481.509 426.612 484.15 426.612 487.357 L 426.612 512.92 Z  M 559.328 368.884 C 557.253 366.432 557.63 362.753 559.988 360.772 C 562.441 358.697 566.119 358.98 568.195 361.433 C 571.968 365.96 575.552 370.865 578.759 375.959 C 580.457 378.6 579.608 382.184 576.967 383.882 C 574.231 385.58 570.647 384.825 568.949 382.09 C 566.025 377.468 562.818 373.035 559.328 368.884 L 559.328 368.884 Z  M 509.713 500.94 C 498.771 519.24 492.357 540.84 492.357 564.139 L 492.357 730.152 C 492.357 733.265 489.81 735.906 486.603 735.906 C 483.396 735.906 480.849 733.265 480.849 730.152 L 480.849 564.139 C 480.849 538.765 487.829 514.995 499.808 494.998 C 511.788 475.001 528.766 458.682 548.952 448.212 C 551.782 446.703 555.272 447.835 556.781 450.665 C 558.29 453.494 557.158 456.985 554.329 458.494 C 536.124 467.926 520.654 482.735 509.713 500.94 Z  M 661.2 547.443 C 673.273 560.46 680.725 578.287 680.725 597.813 L 680.725 730.152 C 680.725 733.265 678.178 735.906 674.971 735.906 C 671.764 735.906 669.217 733.265 669.217 730.152 L 669.217 597.813 C 669.217 585.362 665.633 573.854 659.596 564.233 C 653.559 554.706 645.07 547.066 635.166 542.538 C 628.469 539.614 621.3 537.916 613.754 537.916 C 601.492 537.916 590.172 542.255 580.834 549.707 C 578.382 551.688 574.703 551.31 572.722 548.763 C 570.741 546.311 571.119 542.632 573.665 540.651 C 584.796 531.785 598.662 526.408 613.754 526.408 C 622.998 526.408 631.864 528.389 639.882 532.068 C 647.994 535.747 655.163 541.029 661.2 547.443 Z  M 392.937 553.574 C 403.408 564.799 409.822 580.079 409.822 596.964 L 409.822 730.152 C 409.822 733.265 407.181 735.906 404.068 735.906 C 400.861 735.906 398.22 733.265 398.22 730.152 L 398.22 596.964 C 398.22 586.494 395.296 576.873 390.202 568.855 C 385.203 560.931 378.034 554.612 369.828 550.839 C 364.357 548.292 358.32 546.971 352 546.971 C 346.718 546.971 341.624 547.915 336.908 549.707 C 333.984 550.839 330.588 549.329 329.456 546.311 C 328.324 543.387 329.833 539.991 332.852 538.859 C 338.889 536.595 345.303 535.369 352 535.369 C 360.018 535.369 367.658 537.161 374.638 540.274 C 381.524 543.481 387.749 548.009 392.937 553.574 L 392.937 553.574 Z  M 352.094 572.062 C 362.47 583.192 368.79 598.379 368.79 615.074 L 368.79 730.152 C 368.79 733.265 366.243 735.906 363.036 735.906 C 359.829 735.906 357.282 733.265 357.282 730.152 L 357.282 615.074 C 357.282 604.793 354.358 595.172 349.359 587.343 C 344.36 579.419 337.285 573.099 329.173 569.421 C 323.702 566.968 317.76 565.553 311.534 565.553 C 305.309 565.553 299.366 566.968 293.895 569.421 C 288.424 571.873 283.52 575.552 279.369 579.985 C 270.974 588.946 265.786 601.303 265.786 615.074 L 265.786 730.152 C 265.786 733.265 263.145 735.906 260.032 735.906 C 256.825 735.906 254.184 733.265 254.184 730.152 L 254.184 615.074 C 254.184 602.529 257.769 590.833 263.9 581.117 C 270.125 571.402 278.803 563.667 289.085 558.951 C 295.971 555.744 303.611 554.046 311.534 554.046 C 319.458 554.046 327.004 555.744 333.889 558.951 C 340.775 562.063 347.001 566.591 352.094 572.062 L 352.094 572.062 Z  M 602.812 572.062 C 613.188 583.192 619.508 598.379 619.508 615.074 L 619.508 730.152 C 619.508 733.265 616.961 735.906 613.754 735.906 C 610.547 735.906 607.906 733.265 607.906 730.152 L 607.906 615.074 C 607.906 604.793 604.982 595.172 599.982 587.343 C 594.983 579.419 588.003 573.099 579.797 569.421 C 574.42 566.968 568.478 565.553 562.252 565.553 C 555.932 565.553 550.084 566.968 544.613 569.421 C 539.142 571.873 534.237 575.552 530.087 579.985 C 521.692 588.946 516.504 601.303 516.504 615.074 L 516.504 730.152 C 516.504 733.265 513.863 735.906 510.656 735.906 C 507.543 735.906 504.902 733.265 504.902 730.152 L 504.902 615.074 C 504.902 602.529 508.486 590.833 514.618 581.117 C 520.749 571.402 529.521 563.667 539.803 558.951 C 546.688 555.744 554.329 554.046 562.252 554.046 C 570.175 554.046 577.721 555.744 584.607 558.951 C 591.493 562.063 597.624 566.591 602.812 572.062 L 602.812 572.062 Z " fill-rule="evenodd" fill="rgb(0,0,0)"/><path d=" M 730.152 480 L 724.398 480 C 724.398 547.443 697.044 608.566 652.805 652.805 C 608.566 697.043 547.537 724.398 480 724.398 C 412.463 724.398 351.34 697.043 307.101 652.805 C 262.862 608.566 235.508 547.443 235.508 480 C 235.508 412.463 262.862 351.34 307.101 307.101 C 351.34 262.862 412.463 235.508 480 235.508 C 547.537 235.508 608.566 262.862 652.805 307.101 C 697.044 351.34 724.398 412.463 724.398 480 L 730.152 480 L 736 480 C 736 409.256 707.325 345.303 661.011 298.989 C 614.697 252.675 550.65 224 480 224 C 409.256 224 345.303 252.675 298.989 298.989 C 252.675 345.303 224 409.256 224 480 C 224 550.65 252.675 614.697 298.989 661.011 C 345.303 707.325 409.256 736 480 736 C 550.65 736 614.697 707.325 661.011 661.011 C 707.325 614.697 736 550.65 736 480 L 730.152 480 Z " fill="rgb(0,0,0)"/></g><path d=" M 0 480 C 0 215.081 215.081 0 480 0 C 744.919 0 960 215.081 960 480 C 960 744.919 744.919 960 480 960 C 215.081 960 0 744.919 0 480 Z  M 224 480 C 224 338.71 338.71 224 480 224 C 621.29 224 736 338.71 736 480 C 736 621.29 621.29 736 480 736 C 338.71 736 224 621.29 224 480 Z " fill-rule="evenodd" fill="rgb(255,255,255)"/><mask id="_mask_XHL401uCOzb87DqBC3C01S5mfVpqAbNu"><circle vector-effect="non-scaling-stroke" cx="480.0000000000004" cy="479.9999999999995" r="479.9999999999993" fill="white" stroke="none"/></mask><circle vector-effect="non-scaling-stroke" cx="480.0000000000004" cy="479.9999999999995" r="479.9999999999993" fill="none"/><circle vector-effect="non-scaling-stroke" cx="480.0000000000004" cy="479.9999999999995" r="479.9999999999993" fill="none" mask="url(#_mask_XHL401uCOzb87DqBC3C01S5mfVpqAbNu)" stroke-width="1" stroke="rgb(232,232,232)" stroke-linejoin="miter" stroke-linecap="square" stroke-miterlimit="3"/><mask id="_mask_w4WTVDUKfDIsGbCGR68aeoS2JsOk5TXJ"><circle vector-effect="non-scaling-stroke" cx="479.99999999999955" cy="480.0000000000124" r="255.99999999999966" fill="white" stroke="none"/></mask><circle vector-effect="non-scaling-stroke" cx="479.99999999999955" cy="480.0000000000124" r="255.99999999999966" fill="none"/><circle vector-effect="non-scaling-stroke" cx="479.99999999999955" cy="480.0000000000124" r="255.99999999999966" fill="none" mask="url(#_mask_w4WTVDUKfDIsGbCGR68aeoS2JsOk5TXJ)" stroke-width="2" stroke="rgb(0,0,0)" stroke-linejoin="miter" stroke-linecap="square" stroke-miterlimit="3"/></g></g></g></svg>