<?xml version="1.0" encoding="UTF-8" standalone="no"?><!-- Generator: Gravit.io --><svg xmlns="http://www.w3.org/2000/svg" xmlns:xlink="http://www.w3.org/1999/xlink" style="isolation:isolate" viewBox="0 0 960 960" width="960pt" height="960pt"><defs><clipPath id="_clipPath_qbYCVEldshvjSbNpAXyMVNpZCWb1by7F"><rect width="960" height="960"/></clipPath></defs><g clip-path="url(#_clipPath_qbYCVEldshvjSbNpAXyMVNpZCWb1by7F)"><g><path d=" M 792.69 480 C 792.69 652.734 652.734 792.69 480 792.69 C 307.266 792.69 167.192 652.734 167.192 480 C 167.192 307.266 307.266 167.192 480 167.192 C 652.734 167.192 792.69 307.266 792.69 480 Z " fill="rgb(43,79,144)"/><path d=" M 574.326 730.907 C 465.144 730.907 376.713 642.476 376.713 533.294 C 376.713 424.112 465.144 335.682 574.326 335.682 C 614.06 335.682 650.965 347.472 681.857 367.634 C 696.36 372.115 709.801 378.6 722.299 386.618 C 677.966 328.607 608.283 290.995 529.639 290.995 C 395.814 290.995 287.34 399.469 287.34 533.294 C 287.34 667.119 395.814 775.593 529.639 775.593 C 624.436 775.593 706.382 721.002 746.116 641.651 C 740.929 646.721 735.269 651.319 729.374 655.682 C 693.176 701.43 637.288 730.907 574.326 730.907 L 574.326 730.907 Z " fill="rgb(34,105,163)"/><path d=" M 470.332 523.626 C 470.332 433.427 543.434 360.324 633.515 360.324 C 650.376 360.324 666.647 362.918 681.857 367.634 C 650.965 347.472 614.06 335.682 574.326 335.682 C 465.144 335.682 376.713 424.112 376.713 533.294 C 376.713 642.476 465.144 730.907 574.326 730.907 C 637.288 730.907 693.176 701.43 729.374 655.682 C 702.491 675.254 669.359 686.927 633.515 686.927 C 543.434 686.927 470.332 613.825 470.332 523.626 L 470.332 523.626 Z " fill="rgb(39,170,209)"/><path d=" M 197.966 530.464 C 198.674 471.039 220.251 397.347 259.632 349.595 C 298.777 301.842 355.254 266.588 418.217 253.382 C 484.952 239.234 552.041 245.954 611.938 275.785 C 676.551 307.502 722.181 358.909 750.125 421.636 L 750.479 422.579 C 760.737 444.156 749.772 468.799 728.195 478.939 C 706.5 489.079 680.796 479.764 670.656 458.069 C 669.831 456.537 669.123 454.65 668.652 453.117 C 653.324 405.719 620.899 362.564 577.273 333.913 C 534.001 305.026 479.175 290.995 424.819 295.947 C 370.464 300.663 316.699 324.834 275.549 364.215 C 234.164 403.478 205.866 471.511 197.966 530.464 Z " fill="rgb(39,170,225)"/><path d=" M 197.966 530.464 C 198.202 476.345 219.189 407.605 257.391 365.512 C 295.239 323.184 349.831 294.532 408.666 288.165 C 467.384 281.444 529.521 296.89 579.514 332.38 C 629.624 367.517 667.001 422.343 681.15 483.773 L 681.385 485.306 C 686.338 508.18 671.599 530.818 648.725 535.77 C 625.615 540.604 602.859 525.984 598.261 502.874 C 597.789 500.987 597.671 498.865 597.553 496.979 C 594.37 454.65 572.439 412.911 538.718 382.137 C 505.35 351.245 459.13 332.144 410.435 331.319 C 361.857 330.14 311.746 347.708 272.483 381.076 C 233.102 414.208 205.512 476.699 197.966 530.464 L 197.966 530.464 Z " fill="rgb(34,144,207)"/><path d=" M 197.966 530.464 C 197.73 482.004 217.892 418.806 254.561 382.845 C 290.759 346.529 343.228 324.598 397.347 325.306 C 451.466 325.424 506.765 348.416 546.382 389.329 C 586.352 429.772 610.287 488.136 609.108 547.915 L 609.108 549.919 C 608.637 574.09 588.71 593.309 564.539 592.837 C 540.368 592.366 521.15 572.439 521.739 548.268 C 521.739 546.028 521.975 543.552 522.329 541.43 C 528.931 504.761 520.324 464.554 496.861 431.894 C 473.869 399.234 436.492 375.416 394.046 368.696 C 351.835 361.621 305.615 372.115 268.71 399.234 C 231.805 425.999 205.04 482.476 197.966 530.464 L 197.966 530.464 Z " fill="rgb(28,117,188)"/><path d=" M 190.774 533.294 C 190.774 614.532 223.67 688.106 276.964 741.282 C 330.14 794.576 403.714 827.472 484.952 827.472 C 547.915 827.472 606.279 807.664 654.031 773.943 C 701.783 740.221 739.16 692.587 760.03 636.934 C 761.327 633.751 760.03 630.096 757.2 628.209 C 754.252 626.441 750.361 626.912 748.003 629.388 C 745.763 631.865 743.523 634.223 741.164 636.463 C 740.575 637.052 740.103 637.76 739.749 638.467 C 720.413 676.905 690.818 709.447 654.738 732.321 C 618.541 755.195 575.623 768.401 529.639 768.401 C 464.672 768.401 405.954 742.108 363.39 699.543 C 320.825 656.979 294.532 598.261 294.532 533.294 C 294.532 470.921 318.821 414.326 358.438 372.233 C 361.15 369.285 361.032 364.687 358.084 361.975 C 355.254 359.263 350.656 359.381 347.944 362.329 C 305.851 407.016 280.147 467.148 280.147 533.294 C 280.147 602.152 308.091 664.643 353.25 709.801 C 398.29 754.841 460.781 782.903 529.639 782.786 C 578.453 782.903 623.965 768.755 662.402 744.466 C 700.84 720.295 732.086 685.748 752.601 644.952 L 746.116 641.651 L 751.187 646.956 C 753.78 644.363 756.256 641.887 758.615 639.292 L 753.309 634.34 L 746.588 631.865 C 726.662 684.687 691.172 730.081 645.778 762.152 C 600.265 794.223 544.967 813.088 484.952 813.088 C 407.723 813.088 337.804 781.724 287.104 731.142 C 236.522 680.442 205.158 610.523 205.158 533.294 C 205.158 529.285 201.975 526.102 197.966 526.102 C 193.957 526.102 190.774 529.285 190.774 533.294 L 190.774 533.294 Z " fill="rgb(0,0,0)"/><path d=" M 347.944 362.329 C 305.851 407.016 280.147 467.148 280.147 533.294 C 280.147 602.152 308.091 664.643 353.25 709.801 C 398.29 754.841 460.781 782.903 529.639 782.786 C 578.453 782.903 623.965 768.755 662.402 744.466 C 700.84 720.295 732.086 685.748 752.601 644.952 C 754.252 641.769 753.309 637.996 750.479 635.873 C 747.649 633.751 743.758 634.105 741.164 636.463 C 736.212 641.297 730.789 645.66 725.129 649.786 C 724.539 650.258 724.068 650.612 723.714 651.201 C 706.264 673.25 684.097 691.408 658.629 704.024 C 633.279 716.64 604.628 723.714 574.326 723.714 C 521.739 723.714 474.223 702.373 439.676 667.944 C 405.247 633.515 383.906 585.881 383.906 533.294 C 383.906 504.878 390.155 477.996 401.238 453.707 C 412.439 429.536 428.475 408.077 448.165 390.626 C 451.231 388.032 451.466 383.434 448.873 380.486 C 446.161 377.421 441.68 377.185 438.615 379.779 C 417.391 398.526 400.177 421.636 388.15 447.693 C 376.124 473.751 369.521 502.756 369.521 533.294 C 369.521 589.889 392.395 641.061 429.536 678.202 C 466.559 715.225 517.848 738.217 574.326 738.099 C 606.986 738.099 637.76 730.553 665.114 716.875 C 692.469 703.316 716.286 683.861 735.033 660.162 L 729.374 655.682 L 733.618 661.459 C 739.749 656.979 745.645 652.145 751.187 646.956 L 746.116 641.651 L 739.749 638.467 C 720.413 676.905 690.818 709.447 654.738 732.321 C 618.541 755.195 575.623 768.401 529.639 768.401 C 464.672 768.401 405.954 742.108 363.39 699.543 C 320.825 656.979 294.532 598.261 294.532 533.294 C 294.532 470.921 318.821 414.326 358.438 372.233 C 361.15 369.285 361.032 364.687 358.084 361.975 C 355.254 359.263 350.656 359.381 347.944 362.329 L 347.944 362.329 Z " fill="rgb(0,0,0)"/><path d=" M 438.615 379.779 C 417.391 398.526 400.177 421.636 388.15 447.693 C 376.124 473.751 369.521 502.756 369.521 533.294 C 369.521 589.889 392.395 641.061 429.536 678.202 C 466.559 715.225 517.848 738.217 574.326 738.099 C 606.986 738.099 637.76 730.553 665.114 716.875 C 692.469 703.316 716.286 683.861 735.033 660.162 C 737.273 657.332 737.038 653.324 734.562 650.612 C 732.086 648.018 728.077 647.664 725.129 649.786 C 699.307 668.534 667.826 679.735 633.515 679.735 C 590.479 679.735 551.452 662.284 523.154 633.987 C 494.974 605.689 477.524 566.78 477.524 523.626 C 477.524 491.319 487.192 461.489 503.935 436.61 C 506.175 433.309 505.35 428.828 502.049 426.588 C 498.747 424.348 494.267 425.291 492.027 428.592 C 473.751 455.711 463.021 488.489 463.021 523.626 C 463.021 570.671 482.122 613.353 513.014 644.245 C 543.788 675.018 586.47 694.119 633.515 694.119 C 671.01 694.119 705.556 681.857 733.618 661.459 L 729.374 655.682 L 723.714 651.201 C 706.264 673.25 684.097 691.408 658.629 704.024 C 633.279 716.64 604.628 723.714 574.326 723.714 C 521.739 723.714 474.223 702.373 439.676 667.944 C 405.247 633.515 383.906 585.881 383.906 533.294 C 383.906 504.878 390.155 477.996 401.238 453.707 C 412.439 429.536 428.475 408.077 448.165 390.626 C 451.231 388.032 451.466 383.434 448.873 380.486 C 446.161 377.421 441.562 377.185 438.615 379.779 L 438.615 379.779 Z " fill="rgb(0,0,0)"/><path d=" M 205.158 530.582 C 205.512 501.695 210.936 469.035 221.194 437.907 C 231.334 406.78 246.308 377.185 265.173 354.193 C 303.257 307.62 358.438 273.309 419.632 260.457 C 441.444 255.858 463.139 253.5 484.716 253.5 C 527.752 253.5 569.727 262.933 608.637 282.27 L 608.755 282.27 C 640.236 297.834 667.119 317.996 689.521 342.049 C 711.923 366.102 729.845 393.928 743.523 424.584 L 750.125 421.636 L 743.523 424.466 L 743.876 425.409 L 743.994 425.645 C 746.234 430.243 747.178 434.959 747.178 439.558 C 747.178 446.279 745.055 452.763 741.282 458.541 C 737.509 464.318 731.968 469.153 725.129 472.336 C 720.177 474.694 714.989 475.755 709.801 475.755 C 699.307 475.755 689.167 471.157 682.329 463.021 C 679.735 459.956 675.136 459.602 672.071 462.196 C 669.123 464.672 668.652 469.27 671.245 472.336 C 680.914 483.773 695.063 490.258 709.801 490.258 C 716.993 490.258 724.304 488.725 731.26 485.424 C 740.457 481.061 748.003 474.458 753.309 466.559 C 758.615 458.541 761.562 449.226 761.562 439.558 C 761.562 432.837 760.147 425.999 757.082 419.514 L 750.479 422.579 L 757.2 419.867 L 756.846 418.806 L 756.728 418.688 C 742.461 386.735 723.596 357.494 700.015 332.144 C 676.433 306.912 648.136 285.571 615.004 269.3 L 615.122 269.418 C 574.208 248.902 529.875 239.116 484.716 239.116 C 462.078 239.116 439.322 241.474 416.684 246.308 C 352.071 259.985 294.296 295.947 254.09 344.996 C 233.692 369.757 218.128 400.884 207.399 433.427 C 196.787 465.969 191.127 499.926 190.774 530.464 C 190.774 534.355 193.957 537.657 197.966 537.657 C 201.857 537.775 205.158 534.591 205.158 530.582 L 205.158 530.582 Z " fill="rgb(0,0,0)"/><path d=" M 626.559 386.853 C 649.197 415.505 665.822 449.344 674.193 485.424 L 681.15 483.773 L 674.075 484.716 L 674.193 486.131 L 674.311 486.721 Q 675.136 490.494 675.136 494.149 C 675.136 502.284 672.307 510.066 667.354 516.198 C 662.402 522.329 655.446 526.927 647.192 528.696 Q 643.419 529.403 639.764 529.403 C 629.624 529.403 619.956 525.041 613.471 517.73 C 610.759 514.783 606.161 514.547 603.213 517.259 C 600.265 519.853 600.029 524.451 602.741 527.399 C 612.056 537.657 625.497 543.906 639.764 543.906 Q 644.952 543.906 650.14 542.727 C 661.813 540.251 671.717 533.884 678.674 525.158 C 685.512 516.551 689.521 505.704 689.521 494.149 Q 689.521 488.961 688.46 483.773 L 681.385 485.306 L 688.578 484.363 L 688.342 482.83 C 688.342 482.594 688.342 482.476 688.224 482.122 C 679.381 443.92 661.813 408.195 637.996 377.892 C 635.52 374.709 630.921 374.237 627.856 376.713 C 624.672 379.189 624.083 383.67 626.559 386.853 L 626.559 386.853 Z " fill="rgb(0,0,0)"/><path d=" M 575.387 338.393 Q 585.055 344.996 593.898 352.66 C 596.964 355.372 601.444 355.018 604.038 351.953 C 606.632 349.005 606.396 344.407 603.331 341.813 Q 593.898 333.677 583.64 326.485 C 580.457 324.245 575.976 325.07 573.618 328.253 C 571.378 331.555 572.203 336.035 575.387 338.393 Z " fill="rgb(0,0,0)"/><path d=" M 205.158 530.464 C 205.276 504.407 210.464 474.223 220.251 445.807 C 230.037 417.273 244.539 390.391 262.697 370.346 L 262.815 370.228 C 299.366 329.433 352.424 301.489 409.492 295.357 Q 422.579 293.825 435.785 293.825 C 471.746 293.825 508.062 302.078 541.194 318.113 C 544.731 319.882 549.094 318.349 550.862 314.694 C 552.513 311.157 550.98 306.794 547.443 305.144 C 512.424 288.165 473.869 279.44 435.785 279.44 Q 421.754 279.44 407.841 280.973 L 407.959 280.973 C 347.237 287.575 291.113 317.052 251.968 360.678 L 252.085 360.56 C 232.041 382.609 216.949 411.142 206.573 441.091 C 196.315 471.039 190.892 502.52 190.774 530.464 C 190.774 534.473 193.957 537.657 197.966 537.657 C 201.975 537.775 205.158 534.473 205.158 530.464 L 205.158 530.464 Z " fill="rgb(0,0,0)"/><path d=" M 582.815 455.475 C 595.195 482.948 601.916 513.132 601.916 543.906 Q 601.916 545.792 601.916 547.797 L 601.916 549.801 C 601.68 559.823 597.553 568.666 590.951 575.151 C 584.348 581.636 575.387 585.645 565.483 585.645 Q 565.129 585.645 564.657 585.645 C 554.753 585.409 545.792 581.282 539.307 574.679 C 532.822 568.077 528.931 559.116 528.931 549.212 Q 528.931 548.858 528.931 548.386 L 528.931 548.268 C 528.931 546.618 529.167 544.495 529.521 542.609 L 529.403 542.727 C 530.936 534.355 531.643 525.748 531.643 517.141 C 531.643 486.131 521.975 454.532 502.756 427.649 C 490.73 410.553 474.812 395.814 456.537 384.377 C 438.261 373.058 417.391 365.041 395.225 361.503 C 386.382 360.088 377.303 359.381 368.224 359.381 C 332.027 359.381 295.239 370.818 264.466 393.456 L 264.584 393.456 C 254.679 400.531 245.601 409.609 237.465 419.749 C 225.203 435.077 214.945 453.235 207.045 472.1 C 199.145 491.083 193.604 510.774 190.892 529.403 L 197.966 530.464 L 205.158 530.464 Q 205.158 530.111 205.158 529.639 C 205.158 506.529 210.111 479.411 219.425 454.06 C 224.024 441.326 229.801 428.946 236.522 417.745 C 243.242 406.544 251.024 396.404 259.632 387.914 C 276.728 370.7 297.716 356.905 320.825 347.236 C 344.053 337.686 369.285 332.498 394.871 332.498 Q 396.05 332.498 397.229 332.498 L 397.347 332.498 C 423.405 332.498 449.816 338.158 474.458 348.651 C 499.219 359.145 522.093 374.591 541.194 394.399 L 541.312 394.399 C 547.325 400.531 552.984 407.016 558.172 413.972 C 560.648 417.155 565.129 417.745 568.312 415.269 C 571.496 412.911 572.086 408.312 569.727 405.247 C 564.068 397.819 558.055 390.744 551.57 384.259 L 546.382 389.329 L 551.57 384.259 C 531.054 363.154 506.529 346.647 480.118 335.328 C 453.707 324.127 425.409 318.113 397.347 317.996 L 397.347 325.306 L 397.465 317.996 Q 396.168 317.996 394.871 317.996 C 367.281 317.996 340.162 323.655 315.402 333.913 C 290.523 344.171 268.003 359.145 249.491 377.657 C 239.823 387.089 231.452 398.172 224.141 410.317 C 213.294 428.475 204.923 448.873 199.263 469.506 C 193.721 490.022 190.774 510.774 190.774 529.639 Q 190.774 530.111 190.774 530.582 C 190.774 534.237 193.721 537.421 197.494 537.657 C 201.268 538.01 204.569 535.298 205.158 531.525 C 208.578 508.416 216.713 482.948 228.504 460.192 C 234.517 448.873 241.238 438.143 248.784 428.828 C 256.212 419.396 264.348 411.378 272.955 405.129 L 273.073 405.129 C 301.135 384.377 335.092 373.766 368.224 373.766 C 376.478 373.766 384.849 374.473 392.867 375.77 L 392.985 375.77 C 413.147 378.954 432.248 386.264 448.873 396.64 C 465.615 407.016 480.118 420.575 490.965 436.021 L 491.083 436.021 C 508.534 460.309 517.259 489.197 517.259 517.141 C 517.259 524.923 516.551 532.587 515.254 540.133 L 515.254 540.251 C 514.783 542.609 514.547 545.439 514.429 548.268 L 521.739 548.268 L 514.429 548.15 Q 514.429 548.622 514.429 549.212 C 514.429 563.007 519.971 575.623 529.049 584.819 C 538.01 594.016 550.626 599.794 564.422 600.03 Q 564.893 600.03 565.483 600.03 C 579.278 600.03 591.894 594.488 601.091 585.527 C 610.169 576.448 616.065 563.95 616.301 550.037 L 616.301 550.155 L 616.301 548.15 Q 616.419 545.91 616.419 543.906 C 616.419 511.01 609.108 478.821 596.021 449.58 C 594.37 445.925 590.125 444.392 586.47 446.043 C 582.815 447.576 581.282 451.938 582.815 455.475 L 582.815 455.475 Z " fill="rgb(0,0,0)"/><path d=" M 792.69 480 L 785.498 480 C 785.498 564.304 751.304 640.708 696.006 696.006 C 640.707 751.304 564.422 785.497 480 785.497 C 395.578 785.497 319.293 751.304 263.876 696.006 C 208.578 640.708 174.385 564.304 174.385 480 C 174.385 395.578 208.578 319.175 263.876 263.876 C 319.293 208.578 395.578 174.385 480 174.385 C 564.422 174.385 640.707 208.578 696.006 263.876 C 751.304 319.175 785.498 395.578 785.498 480 L 792.69 480 L 800 480 C 800 391.57 764.156 311.629 706.264 253.736 C 648.371 195.844 568.312 160 480 160 C 391.688 160 311.629 195.844 253.736 253.736 C 195.844 311.629 160 391.57 160 480 C 160 568.312 195.844 648.372 253.736 706.264 C 311.629 764.156 391.688 800 480 800 C 568.312 800 648.371 764.156 706.264 706.264 C 764.156 648.372 800 568.312 800 480 L 792.69 480 Z " fill="rgb(0,0,0)"/></g><path d=" M 0 480 C 0 215.081 215.081 0 480 0 C 744.919 0 960 215.081 960 480 C 960 744.919 744.919 960 480 960 C 215.081 960 0 744.919 0 480 Z  M 160 480 C 160 303.387 303.387 160 480 160 C 656.613 160 800 303.387 800 480 C 800 656.613 656.613 800 480 800 C 303.387 800 160 656.613 160 480 Z " fill-rule="evenodd" fill="rgb(255,255,255)"/><path d=" M 160 480 C 160 303.387 303.387 160 480 160 C 656.613 160 800 303.387 800 480 C 800 656.613 656.613 800 480 800 C 303.387 800 160 656.613 160 480 Z  M 184 480 C 183.99 459.96 186.01 439.98 190.02 420.35 C 193.92 401.33 199.69 382.74 207.26 364.85 C 222.17 329.69 243.72 297.73 270.74 270.74 C 297.73 243.72 329.69 222.17 364.85 207.26 C 382.74 199.69 401.33 193.92 420.35 190.02 C 439.98 186.01 459.97 183.99 480 184 C 500.03 183.99 520.02 186.01 539.65 190.02 C 558.67 193.92 577.26 199.69 595.15 207.26 C 630.31 222.17 662.27 243.72 689.26 270.74 C 716.28 297.73 737.83 329.69 752.74 364.85 C 760.31 382.74 766.08 401.33 769.98 420.35 C 773.99 439.98 776.01 459.97 776 480 C 776.01 500.03 773.99 520.02 769.98 539.65 C 766.08 558.67 760.31 577.26 752.74 595.15 C 737.83 630.31 716.28 662.27 689.26 689.26 C 662.27 716.28 630.31 737.83 595.15 752.74 C 577.26 760.31 558.67 766.08 539.65 769.98 C 520.02 773.99 500.03 776.01 480 776 C 459.97 776.01 439.98 773.99 420.35 769.98 C 401.33 766.08 382.74 760.31 364.85 752.74 C 329.69 737.83 297.73 716.28 270.74 689.26 C 243.72 662.27 222.17 630.31 207.26 595.15 C 199.69 577.26 193.92 558.67 190.02 539.65 C 186.01 520.02 183.99 500.03 184 480 Z " fill-rule="evenodd" fill="rgb(0,0,0)"/></g></svg>