<?xml version="1.0" encoding="UTF-8" standalone="no"?><!-- Generator: Gravit.io --><svg xmlns="http://www.w3.org/2000/svg" xmlns:xlink="http://www.w3.org/1999/xlink" style="isolation:isolate" viewBox="0 0 960 960" width="960pt" height="960pt"><defs><clipPath id="_clipPath_mQ9BVmX933gDa89SCEggOctKCt9Xnmls"><rect width="960" height="960"/></clipPath></defs><g clip-path="url(#_clipPath_mQ9BVmX933gDa89SCEggOctKCt9Xnmls)"><g><path d=" M 792.69 480 C 792.69 652.734 652.734 792.69 480 792.69 C 307.266 792.69 167.192 652.734 167.192 480 C 167.192 307.266 307.266 167.192 480 167.192 C 652.734 167.192 792.69 307.266 792.69 480 Z " fill="rgb(193,227,116)"/><path d=" M 325.424 793.515 L 325.424 442.859 C 325.424 355.136 392.395 283.449 474.105 283.449 C 555.932 283.449 622.786 355.136 622.786 442.859 L 622.786 793.515 L 325.424 793.515 Z " fill="rgb(76,135,53)"/><path d=" M 447.104 791.982 L 447.104 485.542 C 447.104 422.226 495.564 370.346 554.635 370.346 C 613.707 370.346 662.049 422.226 662.049 485.542 L 662.049 791.982 L 447.104 791.982 Z " fill="rgb(225,254,160)"/><path d=" M 277.318 791.982 L 277.318 465.969 C 277.318 428.003 306.205 396.993 341.695 396.993 C 377.067 396.993 406.072 428.003 406.072 465.969 L 406.072 791.982 L 277.318 791.982 Z " fill="rgb(60,197,80)"/><path d=" M 184.76 793.515 L 184.76 608.401 C 184.76 534.709 241.002 474.576 309.624 474.576 C 378.246 474.576 434.488 534.709 434.488 608.401 L 434.488 793.515 L 184.76 793.515 Z " fill="rgb(193,227,116)"/><path d=" M 488.253 793.515 L 488.253 585.173 C 488.253 500.634 552.867 431.54 631.746 431.54 C 710.626 431.54 775.122 500.634 775.122 585.173 L 775.122 793.515 L 488.253 793.515 Z " fill="rgb(193,227,116)"/><path d=" M 570.553 793.515 L 570.553 627.384 C 570.553 582.225 605.099 545.32 647.192 545.32 C 689.285 545.32 723.714 582.225 723.714 627.384 L 723.714 793.515 L 570.553 793.515 Z " fill="rgb(225,254,160)"/><path d=" M 255.033 793.515 L 255.033 626.205 C 255.033 587.885 284.274 556.522 320 556.522 C 355.726 556.522 385.085 587.885 385.085 626.205 L 385.085 793.515 L 255.033 793.515 Z " fill="rgb(225,254,160)"/><path d=" M 205.041 791.982 L 205.041 648.843 C 205.041 610.877 233.928 579.867 269.418 579.867 C 304.79 579.867 333.795 610.877 333.795 648.843 L 333.795 791.982 L 205.041 791.982 Z " fill="rgb(60,197,80)"/><path d=" M 518.32 791.982 L 518.32 648.843 C 518.32 610.877 547.325 579.867 582.815 579.867 C 618.187 579.867 647.192 610.877 647.192 648.843 L 647.192 791.982 L 518.32 791.982 Z " fill="rgb(76,135,53)"/><path d=" M 782.314 585.173 L 782.314 792.69 C 782.314 796.698 779.13 800 775.122 800 C 771.113 800 767.929 796.698 767.929 792.69 L 767.929 585.173 C 767.929 554.871 759.204 526.691 744.466 503.346 C 729.727 479.882 708.74 461.253 684.451 450.169 C 668.18 442.859 650.376 438.733 631.746 438.733 C 622.196 438.733 612.999 439.794 604.038 441.798 C 600.147 442.623 596.256 440.265 595.431 436.374 C 594.488 432.483 596.964 428.592 600.855 427.767 C 610.759 425.527 621.135 424.348 631.746 424.348 Q 634.34 424.348 637.052 424.466 C 629.153 412.085 618.895 401.592 607.104 393.692 C 591.776 383.434 573.736 377.539 554.635 377.539 C 540.84 377.539 527.752 380.604 515.844 386.028 C 503.935 391.452 493.088 399.352 484.009 409.138 C 465.733 428.71 454.296 455.711 454.296 485.542 L 454.296 571.378 C 454.296 575.387 451.113 578.688 447.104 578.688 C 443.095 578.688 439.912 575.387 439.912 571.378 L 439.912 485.542 C 439.912 460.427 447.104 436.964 459.484 417.391 C 471.746 397.819 489.315 382.255 509.831 372.822 C 523.626 366.573 538.718 363.154 554.635 363.154 C 576.802 363.154 597.553 369.993 615.122 381.665 C 626.559 389.329 636.581 398.998 644.834 410.317 L 644.834 320.589 C 644.834 306.677 640.943 293.707 634.105 282.977 C 627.384 272.248 617.833 263.758 606.75 258.688 C 599.322 255.387 591.186 253.5 582.815 253.5 C 578.217 253.5 573.854 254.09 569.609 255.033 C 565.718 255.976 561.828 253.5 560.884 249.727 C 559.941 245.836 562.417 241.945 566.308 241.002 C 571.614 239.705 577.155 239.116 582.815 239.116 C 593.309 239.116 603.449 241.356 612.646 245.601 C 621.842 249.727 630.096 255.741 637.052 263.169 C 650.847 278.025 659.337 298.305 659.337 320.589 L 659.337 427.06 C 670.066 429.182 680.56 432.601 690.346 437.082 C 708.386 445.335 724.657 457.126 738.335 471.747 C 765.571 500.987 782.314 541.076 782.314 585.173 Z  M 413.265 521.15 C 431.069 545.203 441.68 575.623 441.68 608.401 L 441.68 792.69 C 441.68 796.698 438.497 800 434.488 800 C 430.479 800 427.296 796.698 427.296 792.69 L 427.296 608.401 C 427.296 582.108 419.749 557.819 407.015 537.539 Q 403.95 532.704 400.531 528.342 Q 400.295 527.988 400.059 527.634 C 388.032 512.071 372.587 499.69 355.136 491.673 C 341.105 485.306 325.777 481.769 309.624 481.769 C 299.366 481.769 289.344 483.183 279.794 485.895 Q 279.204 486.131 278.733 486.249 Q 271.186 488.489 264.112 491.673 C 250.081 498.04 237.465 507.354 226.735 518.791 C 205.394 541.665 191.953 573.382 191.953 608.401 L 191.953 792.69 C 191.953 796.698 188.769 800 184.76 800 C 180.752 800 177.568 796.698 177.568 792.69 L 177.568 608.401 C 177.568 579.396 185.822 552.277 200.088 529.875 C 214.237 507.354 234.399 489.315 258.217 478.585 Q 263.994 475.873 270.007 473.869 L 270.007 465.969 C 270.007 450.405 274.488 435.785 282.152 423.64 C 289.934 411.496 300.781 401.71 313.633 395.814 Q 319.528 393.22 325.777 391.688 C 335.682 359.145 354.783 330.847 379.897 310.332 C 405.954 288.99 438.732 276.256 474.105 276.256 C 488.371 276.256 502.167 278.261 515.372 282.152 C 519.263 274.488 524.215 267.413 530.111 261.518 C 532.94 258.688 537.539 258.57 540.368 261.4 C 543.198 264.23 543.198 268.828 540.368 271.658 C 536.006 276.139 532.115 281.326 529.049 286.986 C 544.613 293.235 558.998 302.196 571.732 313.161 C 574.679 315.755 575.033 320.236 572.439 323.301 C 569.845 326.367 565.247 326.603 562.299 324.009 C 550.155 313.633 536.36 305.262 521.503 299.484 C 506.647 293.825 490.73 290.641 474.105 290.641 C 442.27 290.641 412.793 302.196 388.976 321.533 C 367.752 338.865 351.127 362.447 341.577 389.801 Q 341.577 389.801 341.695 389.801 C 350.302 389.801 358.674 391.452 366.455 394.517 C 374.119 397.465 381.194 401.945 387.325 407.369 C 399.705 418.335 408.548 433.545 411.85 450.759 C 412.557 454.65 410.081 458.423 406.072 459.248 C 402.181 459.956 398.408 457.362 397.701 453.471 C 395.578 442.859 391.098 433.309 384.731 425.409 C 378.364 417.627 370.228 411.496 361.15 407.959 C 355.018 405.483 348.534 404.186 341.695 404.186 Q 337.45 404.186 333.441 404.893 Q 332.734 405.129 331.909 405.129 Q 325.542 406.308 319.646 409.02 C 312.808 412.085 306.676 416.566 301.489 422.226 C 290.995 433.427 284.51 448.873 284.51 465.969 L 284.51 469.978 C 292.646 468.209 301.017 467.384 309.624 467.384 C 327.9 467.384 345.232 471.393 361.15 478.585 C 375.063 484.952 387.797 493.795 398.88 504.643 L 398.88 489.197 C 398.88 485.188 402.063 481.887 406.072 481.887 C 410.081 481.887 413.265 485.188 413.265 489.197 L 413.265 521.15 Z  M 579.16 341.105 C 576.566 338.04 577.038 333.441 579.985 330.965 C 583.051 328.371 587.649 328.725 590.243 331.791 C 594.959 337.45 599.44 343.581 603.449 349.948 C 605.571 353.25 604.51 357.73 601.209 359.853 C 597.789 361.975 593.309 361.032 591.186 357.612 C 587.531 351.835 583.522 346.293 579.16 341.105 L 579.16 341.105 Z  M 517.141 506.175 C 503.464 529.049 495.446 556.05 495.446 585.173 L 495.446 792.69 C 495.446 796.581 492.262 799.882 488.253 799.882 C 484.245 799.882 481.061 796.581 481.061 792.69 L 481.061 585.173 C 481.061 553.456 489.786 523.744 504.76 498.747 C 519.735 473.751 540.958 453.353 566.19 440.265 C 569.727 438.379 574.09 439.794 575.976 443.331 C 577.863 446.868 576.448 451.231 572.911 453.117 C 550.155 464.908 530.818 483.419 517.141 506.175 Z  M 706.5 564.304 C 721.592 580.575 730.906 602.859 730.906 627.266 L 730.906 792.69 C 730.906 796.581 727.723 799.882 723.714 799.882 C 719.705 799.882 716.522 796.581 716.522 792.69 L 716.522 627.266 C 716.522 611.702 712.041 597.318 704.495 585.291 C 696.949 573.382 686.337 563.832 673.957 558.172 C 665.586 554.517 656.625 552.395 647.192 552.395 C 631.864 552.395 617.716 557.819 606.043 567.133 C 602.977 569.609 598.379 569.138 595.903 565.954 C 593.427 562.889 593.898 558.29 597.082 555.814 C 610.995 544.731 628.327 538.01 647.192 538.01 C 658.747 538.01 669.83 540.486 679.853 545.085 C 689.993 549.683 698.954 556.286 706.5 564.304 Z  M 371.172 571.968 C 384.259 585.998 392.277 605.099 392.277 626.205 L 392.277 792.69 C 392.277 796.581 388.976 799.882 385.085 799.882 C 381.076 799.882 377.775 796.581 377.775 792.69 L 377.775 626.205 C 377.775 613.117 374.119 601.091 367.752 591.068 C 361.503 581.164 352.542 573.265 342.284 568.548 C 335.446 565.365 327.9 563.714 320 563.714 C 313.397 563.714 307.03 564.893 301.135 567.133 C 297.48 568.548 293.235 566.662 291.82 562.889 C 290.405 559.234 292.292 554.989 296.065 553.574 C 303.611 550.744 311.629 549.211 320 549.211 C 330.022 549.211 339.573 551.452 348.298 555.343 C 356.905 559.351 364.687 565.011 371.172 571.968 L 371.172 571.968 Z  M 320.118 595.077 C 333.088 608.99 340.987 627.973 340.987 648.843 L 340.987 792.69 C 340.987 796.581 337.804 799.882 333.795 799.882 C 329.786 799.882 326.603 796.581 326.603 792.69 L 326.603 648.843 C 326.603 635.991 322.948 623.964 316.699 614.178 C 310.45 604.274 301.606 596.374 291.466 591.776 C 284.628 588.71 277.2 586.942 269.418 586.942 C 261.636 586.942 254.208 588.71 247.369 591.776 C 240.531 594.841 234.399 599.44 229.211 604.982 C 218.718 616.183 212.233 631.628 212.233 648.843 L 212.233 792.69 C 212.233 796.581 208.931 799.882 205.041 799.882 C 201.032 799.882 197.73 796.581 197.73 792.69 L 197.73 648.843 C 197.73 633.161 202.211 618.541 209.875 606.396 C 217.657 594.252 228.504 584.584 241.356 578.688 C 249.963 574.679 259.514 572.557 269.418 572.557 C 279.322 572.557 288.755 574.679 297.362 578.688 C 305.969 582.579 313.751 588.239 320.118 595.077 L 320.118 595.077 Z  M 633.515 595.077 C 646.485 608.99 654.385 627.973 654.385 648.843 L 654.385 792.69 C 654.385 796.581 651.201 799.882 647.192 799.882 C 643.183 799.882 639.882 796.581 639.882 792.69 L 639.882 648.843 C 639.882 635.991 636.227 623.964 629.978 614.178 C 623.729 604.274 615.004 596.374 604.746 591.776 C 598.025 588.71 590.597 586.942 582.815 586.942 C 574.915 586.942 567.605 588.71 560.766 591.776 C 553.928 594.841 547.797 599.44 542.609 604.982 C 532.115 616.183 525.63 631.628 525.63 648.843 L 525.63 792.69 C 525.63 796.581 522.329 799.882 518.32 799.882 C 514.429 799.882 511.127 796.581 511.127 792.69 L 511.127 648.843 C 511.127 633.161 515.608 618.541 523.272 606.396 C 530.936 594.252 541.901 584.584 554.753 578.688 C 563.36 574.679 572.911 572.557 582.815 572.557 C 592.719 572.557 602.152 574.679 610.759 578.688 C 619.366 582.579 627.03 588.239 633.515 595.077 L 633.515 595.077 Z " fill-rule="evenodd" fill="rgb(0,0,0)"/><path d=" M 792.69 480 L 785.497 480 C 785.497 564.304 751.304 640.708 696.006 696.006 C 640.707 751.304 564.422 785.497 480 785.497 C 395.578 785.497 319.175 751.304 263.876 696.006 C 208.578 640.708 174.385 564.304 174.385 480 C 174.385 395.578 208.578 319.175 263.876 263.876 C 319.175 208.578 395.578 174.385 480 174.385 C 564.422 174.385 640.707 208.578 696.006 263.876 C 751.304 319.175 785.497 395.578 785.497 480 L 792.69 480 L 800 480 C 800 391.57 764.156 311.629 706.264 253.736 C 648.371 195.844 568.312 160 480 160 C 391.57 160 311.629 195.844 253.736 253.736 C 195.844 311.629 160 391.57 160 480 C 160 568.312 195.844 648.371 253.736 706.264 C 311.629 764.156 391.57 800 480 800 C 568.312 800 648.371 764.156 706.264 706.264 C 764.156 648.371 800 568.312 800 480 L 792.69 480 Z " fill="rgb(0,0,0)"/></g><path d=" M 0 480 C 0 215.081 215.081 0 480 0 C 744.919 0 960 215.081 960 480 C 960 744.919 744.919 960 480 960 C 215.081 960 0 744.919 0 480 Z  M 160 480 C 160 303.387 303.387 160 480 160 C 656.613 160 800 303.387 800 480 C 800 656.613 656.613 800 480 800 C 303.387 800 160 656.613 160 480 Z " fill-rule="evenodd" fill="rgb(255,255,255)"/><path d=" M 160 480 C 160 303.387 303.387 160 480 160 C 656.613 160 800 303.387 800 480 C 800 656.613 656.613 800 480 800 C 303.387 800 160 656.613 160 480 Z  M 184 480 C 183.99 459.96 186.01 439.98 190.02 420.35 C 193.92 401.33 199.69 382.74 207.26 364.85 C 222.17 329.69 243.72 297.73 270.74 270.74 C 297.73 243.72 329.69 222.17 364.85 207.26 C 382.74 199.69 401.33 193.92 420.35 190.02 C 439.98 186.01 459.97 183.99 480 184 C 500.03 183.99 520.02 186.01 539.65 190.02 C 558.67 193.92 577.26 199.69 595.15 207.26 C 630.31 222.17 662.27 243.72 689.26 270.74 C 716.28 297.73 737.83 329.69 752.74 364.85 C 760.31 382.74 766.08 401.33 769.98 420.35 C 773.99 439.98 776.01 459.97 776 480 C 776.01 500.03 773.99 520.02 769.98 539.65 C 766.08 558.67 760.31 577.26 752.74 595.15 C 737.83 630.31 716.28 662.27 689.26 689.26 C 662.27 716.28 630.31 737.83 595.15 752.74 C 577.26 760.31 558.67 766.08 539.65 769.98 C 520.02 773.99 500.03 776.01 480 776 C 459.97 776.01 439.98 773.99 420.35 769.98 C 401.33 766.08 382.74 760.31 364.85 752.74 C 329.69 737.83 297.73 716.28 270.74 689.26 C 243.72 662.27 222.17 630.31 207.26 595.15 C 199.69 577.26 193.92 558.67 190.02 539.65 C 186.01 520.02 183.99 500.03 184 480 Z " fill-rule="evenodd" fill="rgb(0,0,0)"/></g></svg>