<?xml version="1.0" encoding="UTF-8" standalone="no"?><!-- Generator: Gravit.io --><svg xmlns="http://www.w3.org/2000/svg" xmlns:xlink="http://www.w3.org/1999/xlink" style="isolation:isolate" viewBox="0 0 960 960" width="960pt" height="960pt"><defs><clipPath id="_clipPath_0NUUbrfzx3gDD6ObKNTyAheoWZTtnHXW"><rect width="960" height="960"/></clipPath></defs><g clip-path="url(#_clipPath_0NUUbrfzx3gDD6ObKNTyAheoWZTtnHXW)"><path d=" M 0 480 C 0 215.081 215.081 0 480 0 C 744.919 0 960 215.081 960 480 C 960 744.919 744.919 960 480 960 C 215.081 960 0 744.919 0 480 Z  M 160 480 C 160 303.387 303.387 160 480 160 C 656.613 160 800 303.387 800 480 C 800 656.613 656.613 800 480 800 C 303.387 800 160 656.613 160 480 Z " fill-rule="evenodd" fill="rgb(255,255,255)"/><path d=" M 160 480 C 160 303.387 303.387 160 480 160 C 656.613 160 800 303.387 800 480 C 800 656.613 656.613 800 480 800 C 303.387 800 160 656.613 160 480 Z  M 184 480 C 183.99 459.96 186.01 439.98 190.02 420.35 C 193.92 401.33 199.69 382.74 207.26 364.85 C 222.17 329.69 243.72 297.73 270.74 270.74 C 297.73 243.72 329.69 222.17 364.85 207.26 C 382.74 199.69 401.33 193.92 420.35 190.02 C 439.98 186.01 459.97 183.99 480 184 C 500.03 183.99 520.02 186.01 539.65 190.02 C 558.67 193.92 577.26 199.69 595.15 207.26 C 630.31 222.17 662.27 243.72 689.26 270.74 C 716.28 297.73 737.83 329.69 752.74 364.85 C 760.31 382.74 766.08 401.33 769.98 420.35 C 773.99 439.98 776.01 459.97 776 480 C 776.01 500.03 773.99 520.02 769.98 539.65 C 766.08 558.67 760.31 577.26 752.74 595.15 C 737.83 630.31 716.28 662.27 689.26 689.26 C 662.27 716.28 630.31 737.83 595.15 752.74 C 577.26 760.31 558.67 766.08 539.65 769.98 C 520.02 773.99 500.03 776.01 480 776 C 459.97 776.01 439.98 773.99 420.35 769.98 C 401.33 766.08 382.74 760.31 364.85 752.74 C 329.69 737.83 297.73 716.28 270.74 689.26 C 243.72 662.27 222.17 630.31 207.26 595.15 C 199.69 577.26 193.92 558.67 190.02 539.65 C 186.01 520.02 183.99 500.03 184 480 Z " fill-rule="evenodd" fill="rgb(0,0,0)"/><g><path d=" M 792.826 479.182 C 792.826 651.475 653.113 791.073 480.823 791.073 C 308.534 791.073 168.82 651.475 168.82 479.182 C 168.82 306.89 308.534 167.174 480.823 167.174 C 653.113 167.174 792.826 306.89 792.826 479.182 Z " fill="rgb(162,162,162)"/><path d=" M 338.17 327.823 C 361.22 327.823 383.447 332.763 403.44 340.878 C 393.679 360.518 392.738 382.393 392.738 384.862 C 330.408 371.808 269.607 406.737 253.377 455.073 C 225.388 538.103 286.542 590.672 315.119 569.386 C 306.534 561.506 299.831 551.392 296.773 539.279 C 285.954 498.352 310.65 456.837 351.224 446.017 C 402.264 432.728 454.48 463.305 467.769 514.229 C 471.415 528.341 472.356 542.454 471.062 556.096 C 468.71 580.676 458.479 603.727 442.72 622.308 C 436.251 629.718 428.842 636.421 420.61 642.184 C 409.438 650.063 396.619 656.061 382.506 659.825 L 382.506 660.06 C 368.512 663.706 353.576 665.823 338.17 665.823 C 244.792 665.823 169.173 590.32 169.173 496.823 C 169.173 403.444 244.792 327.823 338.17 327.823 Z " fill="rgb(232,232,232)"/><path d=" M 568.203 642.066 C 553.738 667.822 526.101 684.992 494.465 684.992 C 463.418 684.992 436.487 668.41 421.551 643.595 L 420.61 642.184 C 428.842 636.421 436.251 629.718 442.72 622.308 C 450.364 634.775 464.006 643.007 479.765 643.007 C 498.229 643.007 513.87 631.717 520.338 615.722 C 534.098 626.777 550.21 635.833 568.203 642.066 L 568.203 642.066 Z " fill="rgb(162,162,162)"/><path d=" M 520.338 615.722 C 513.87 631.717 498.229 643.007 479.765 643.007 C 464.006 643.007 450.364 634.775 442.72 622.308 C 458.479 603.727 468.71 580.676 471.062 556.096 C 483.763 579.147 499.758 599.61 520.338 615.722 Z " fill="rgb(70,70,70)"/><path d=" M 523.749 327.823 C 550.798 327.823 574.789 339.937 591.018 358.754 C 583.139 364.046 575.965 370.514 569.849 377.688 L 568.908 376.865 C 531.393 384.51 503.521 417.792 503.521 457.19 C 503.521 467.304 505.285 476.712 508.578 485.651 C 487.88 455.308 467.769 424.143 441.544 406.149 C 439.78 404.973 438.015 403.914 436.251 402.856 C 442.955 360.518 479.647 327.823 523.749 327.823 L 523.749 327.823 Z " fill="rgb(70,70,70)"/><path d=" M 613.716 519.756 C 648.997 525.754 682.867 502.115 688.864 466.716 Q 690.04 460.953 689.452 455.073 L 689.688 455.073 C 730.849 492.589 692.981 578.559 612.54 571.738 C 565.968 567.857 536.92 527.518 508.578 485.886 L 508.578 485.651 C 505.285 476.712 503.521 467.304 503.521 457.19 C 503.521 417.792 531.393 384.51 568.908 376.865 L 569.849 377.688 C 558.795 390.978 550.798 407.207 547.622 425.319 C 539.86 469.656 569.379 511.877 613.716 519.756 Z " fill="rgb(232,232,232)"/><path d=" M 665.814 342.877 C 738.964 355.931 794.355 419.909 794.355 496.823 C 794.355 583.381 724.263 653.356 637.942 653.356 C 611.716 653.356 588.666 649.475 568.203 642.066 C 550.21 635.833 534.098 626.777 520.338 615.722 C 499.758 599.61 483.763 579.147 471.062 556.096 C 472.356 542.454 471.415 528.341 467.769 514.229 C 454.48 463.305 402.264 432.728 351.224 446.017 C 310.65 456.837 285.954 498.352 296.773 539.279 C 299.831 551.392 306.534 561.506 315.119 569.386 C 286.542 590.672 225.388 538.103 253.377 455.073 C 269.607 406.737 330.408 371.808 392.738 384.862 C 407.321 388.038 422.021 393.918 436.251 402.856 C 438.015 403.914 439.78 404.973 441.544 406.149 C 467.769 424.143 487.88 455.308 508.578 485.651 L 508.578 485.886 C 536.92 527.518 565.968 567.857 612.54 571.738 C 692.981 578.559 730.849 492.589 689.688 455.073 L 689.452 455.073 Q 690.04 460.953 688.864 466.716 C 682.867 502.115 648.997 525.754 613.716 519.756 C 569.379 511.877 539.86 469.656 547.622 425.319 C 550.798 407.207 558.795 390.978 569.849 377.688 C 575.965 370.514 583.139 364.046 591.018 358.754 C 597.604 354.285 604.895 350.521 612.54 347.581 C 628.886 341.466 646.88 339.584 665.226 342.877 L 665.814 342.877 Z " fill="rgb(139,139,139)"/><path d=" M 378.626 653.004 C 365.101 656.649 350.871 658.648 336.171 658.648 C 291.481 658.648 251.025 640.537 221.742 611.254 C 192.459 581.97 174.348 541.631 174.348 496.941 C 174.348 452.25 192.459 411.794 221.742 382.51 C 251.025 353.226 291.481 335.115 336.171 335.115 C 358.515 335.115 379.802 339.584 399.089 347.816 C 402.734 349.345 406.968 347.699 408.497 344.053 C 410.026 340.29 408.379 336.056 404.734 334.527 C 383.682 325.589 360.397 320.65 336.171 320.65 C 287.483 320.65 243.381 340.407 211.511 372.278 C 179.64 404.15 160 448.252 160 496.941 C 160 545.512 179.64 589.614 211.511 621.485 C 243.381 653.356 287.483 672.997 336.171 672.997 C 352.165 672.997 367.688 670.88 382.389 666.881 C 386.27 665.823 388.504 661.941 387.446 658.06 C 386.505 654.18 382.506 651.945 378.626 653.004 L 378.626 653.004 Z " fill="rgb(0,0,0)"/><path d=" M 662.521 349.933 C 697.45 356.166 728.144 374.631 750.018 400.621 C 772.01 426.612 785.182 460.13 785.182 496.941 C 785.182 538.22 768.482 575.501 741.433 602.433 C 714.384 629.482 677.104 646.182 635.943 646.182 C 615.597 646.182 597.369 643.713 580.904 639.244 C 556.09 632.423 535.391 621.132 517.986 606.314 C 500.581 591.496 486.468 573.149 475.413 552.568 C 473.414 549.04 469.063 547.746 465.652 549.628 C 462.124 551.51 460.831 555.861 462.712 559.389 C 478.471 588.673 500.11 614.076 528.806 632.07 C 543.153 641.125 559.265 648.182 577.023 653.121 C 594.899 657.943 614.421 660.648 635.943 660.648 C 681.103 660.648 722.029 642.301 751.665 612.665 C 781.301 583.028 799.647 542.101 799.647 496.941 C 799.647 456.719 785.064 419.791 761.073 391.331 C 736.964 362.87 703.33 342.642 665.108 335.821 C 661.227 335.115 657.464 337.702 656.759 341.583 C 656.053 345.464 658.64 349.228 662.521 349.933 L 662.521 349.933 Z " fill="rgb(0,0,0)"/><path d=" M 559.971 638.538 C 553.267 650.299 543.624 660.177 532.099 667.116 C 520.456 673.937 506.931 677.936 492.466 677.936 C 478.236 677.936 465.064 674.055 453.657 667.469 C 442.249 660.883 432.606 651.357 425.902 639.949 C 423.785 636.539 419.434 635.48 416.023 637.479 C 412.613 639.479 411.437 643.948 413.436 647.358 C 421.551 660.765 432.841 672.056 446.365 679.935 C 459.89 687.815 475.649 692.284 492.466 692.284 C 509.636 692.284 525.748 687.58 539.39 679.465 C 553.15 671.233 564.557 659.589 572.437 645.712 C 574.436 642.184 573.26 637.832 569.732 635.833 C 566.321 633.951 561.852 635.127 559.971 638.538 Z " fill="rgb(0,0,0)"/><path d=" M 382.271 666.881 C 410.731 659.354 434.37 642.889 450.952 621.132 C 467.416 599.493 476.825 572.679 476.825 544.571 C 476.825 533.986 475.531 523.167 472.709 512.465 C 466.711 489.414 453.304 470.244 435.663 456.837 C 418.023 443.43 396.266 435.786 373.451 435.786 C 364.866 435.786 356.163 436.844 347.461 439.078 C 328.761 444.018 313.12 454.955 302.183 469.303 C 291.246 483.651 285.013 501.292 285.013 519.874 C 285.013 526.93 285.954 533.986 287.835 541.043 C 291.834 556.449 300.772 569.151 312.415 578.089 C 324.175 587.027 338.64 592.084 353.811 592.084 C 359.456 592.084 365.336 591.378 371.099 589.849 C 383.682 586.556 394.149 579.265 401.441 569.621 C 408.85 559.977 412.966 548.099 412.966 535.633 C 412.966 530.929 412.378 526.225 411.202 521.52 L 411.202 521.403 C 408.497 511.053 402.381 502.35 394.384 496.353 C 386.505 490.355 376.626 486.827 366.395 486.827 C 362.514 486.827 358.633 487.297 354.634 488.355 C 350.753 489.414 347.108 491.178 343.932 493.295 C 339.111 496.705 335.23 501.057 332.407 505.996 C 329.702 510.936 328.056 516.463 328.056 522.108 C 328.056 524.813 328.409 527.636 329.232 530.341 C 330.055 533.046 331.349 535.633 333.231 537.985 C 335.583 541.16 340.051 541.866 343.227 539.396 C 346.402 537.044 347.108 532.575 344.756 529.4 Q 343.462 527.753 342.992 525.989 Q 342.404 524.225 342.404 522.108 C 342.404 520.226 342.756 518.227 343.58 516.11 C 344.756 512.935 346.755 509.877 349.342 507.408 C 351.929 504.938 354.987 503.174 358.28 502.35 Q 362.396 501.292 366.395 501.292 C 373.451 501.292 380.272 503.644 385.682 507.76 C 391.209 511.994 395.325 517.874 397.207 525.166 L 397.207 525.048 Q 398.618 530.458 398.618 535.633 C 398.618 544.924 395.443 553.744 390.033 560.918 C 384.623 568.092 376.861 573.502 367.453 575.972 C 362.867 577.148 358.28 577.736 353.811 577.736 C 341.815 577.736 330.408 573.737 321.117 566.681 C 311.944 559.624 304.888 549.628 301.713 537.397 C 300.184 531.517 299.478 525.636 299.478 519.874 C 299.478 504.585 304.653 489.884 313.591 478.006 C 322.646 466.128 335.583 457.19 351.106 453.074 C 358.633 451.074 366.16 450.133 373.451 450.133 C 392.973 450.133 411.79 456.719 426.961 468.245 C 442.014 479.888 453.539 496.235 458.831 516.11 C 461.301 525.636 462.477 535.163 462.477 544.571 C 462.477 569.386 454.127 593.142 439.427 612.43 C 424.844 631.599 403.91 646.3 378.626 652.886 C 374.862 653.944 372.51 657.825 373.569 661.706 C 374.509 665.587 378.508 667.822 382.271 666.881 L 382.271 666.881 Z " fill="rgb(0,0,0)"/><path d=" M 664.52 335.821 Q 654.995 334.174 645.586 334.174 C 619.596 334.174 595.134 343.465 576.082 359.342 C 557.031 375.219 543.153 397.799 538.567 424.143 Q 537.155 431.905 537.155 439.667 C 537.155 460.718 544.8 480.593 557.619 496.117 C 570.555 511.641 588.901 522.931 610.423 526.695 Q 616.773 527.871 623.006 527.871 C 640.177 527.871 656.406 521.638 669.107 511.053 C 681.808 500.469 690.981 485.533 694.039 468.01 Q 694.98 462.835 694.98 457.778 C 694.98 443.548 689.923 430.258 681.22 419.909 C 672.635 409.442 660.287 401.915 645.939 399.445 Q 641.705 398.74 637.472 398.74 C 625.829 398.74 614.892 402.856 606.307 410.03 C 597.721 417.086 591.488 427.2 589.372 439.078 Q 588.784 442.607 588.784 446.135 C 588.784 455.779 592.312 464.952 598.192 472.008 C 604.072 479.064 612.54 484.239 622.301 486.003 Q 624.77 486.474 627.24 486.474 C 631.121 486.474 635.002 485.651 638.412 484.357 C 643.705 482.475 648.409 479.3 651.937 475.066 C 653.819 472.949 655.23 470.597 656.288 468.01 C 657.464 465.305 658.052 462.482 658.052 459.542 C 658.052 457.307 657.699 455.073 656.994 452.956 C 655.818 449.075 651.819 447.076 647.938 448.252 C 644.175 449.428 642.058 453.426 643.234 457.307 Q 643.705 458.366 643.587 459.542 C 643.587 460.836 643.234 462.129 642.529 463.541 C 641.353 465.658 639.118 467.892 636.296 469.538 C 633.591 471.067 630.298 472.008 627.24 472.008 Q 625.946 472.008 624.77 471.773 C 618.42 470.714 613.128 467.422 609.247 462.835 C 605.366 458.248 603.249 452.368 603.249 446.135 Q 603.249 443.9 603.602 441.548 C 605.013 433.198 609.364 426.142 615.48 421.085 C 621.477 416.028 629.239 413.088 637.472 413.088 Q 640.412 413.088 643.469 413.676 C 654.407 415.557 663.58 421.202 670.165 429.082 C 676.751 436.962 680.632 447.076 680.632 457.778 Q 680.632 461.541 679.927 465.54 C 677.457 479.652 670.048 491.531 659.934 499.998 C 649.702 508.466 636.766 513.405 623.006 513.405 Q 617.949 513.405 612.892 512.582 C 594.899 509.407 579.611 499.998 568.791 486.944 C 557.854 473.89 551.621 457.307 551.621 439.667 Q 551.621 433.198 552.679 426.612 C 556.795 403.679 568.673 384.274 585.255 370.397 C 601.838 356.637 623.124 348.522 645.586 348.522 Q 653.701 348.522 662.051 350.051 C 665.932 350.757 669.695 348.052 670.401 344.171 C 671.106 340.29 668.519 336.526 664.52 335.821 L 664.52 335.821 Z " fill="rgb(0,0,0)"/><path d=" M 408.732 344.288 C 416.612 325.589 429.901 309.595 446.6 298.304 C 463.3 287.014 483.411 280.428 505.167 280.428 C 527.865 280.428 548.916 287.72 566.086 300.068 C 583.256 312.417 596.545 329.823 603.719 350.051 C 605.131 353.814 609.247 355.814 612.892 354.402 C 616.656 353.109 618.655 348.992 617.361 345.229 C 609.129 322.178 594.076 302.303 574.554 288.308 C 555.031 274.313 531.04 265.963 505.167 265.963 C 480.47 265.963 457.538 273.49 438.604 286.309 C 419.552 299.128 404.498 317.356 395.443 338.643 C 393.914 342.407 395.561 346.64 399.206 348.169 C 402.969 349.698 407.086 347.934 408.732 344.288 L 408.732 344.288 Z " fill="rgb(0,0,0)"/><path d=" M 308.769 563.505 Q 306.417 565.152 303.83 565.975 Q 301.242 566.799 298.302 566.799 C 293.833 566.799 288.659 565.387 283.366 562.329 C 275.369 557.743 267.372 549.628 261.374 538.455 C 255.377 527.165 251.378 513.053 251.378 496.47 C 251.378 484.592 253.377 471.538 258.082 457.425 C 261.257 448.017 266.431 438.961 273.017 430.846 C 283.014 418.615 296.42 408.148 312.062 400.857 C 327.703 393.565 345.461 389.331 363.925 389.331 C 387.446 389.331 412.143 396.152 435.428 412.147 C 449.893 422.143 462.947 436.844 475.296 453.544 C 484.704 466.01 493.642 479.652 502.933 493.295 C 516.81 513.523 531.158 533.634 548.21 549.51 C 556.678 557.39 565.968 564.329 576.2 569.386 C 586.431 574.56 597.721 577.971 609.952 578.912 Q 614.774 579.382 619.361 579.382 C 633.473 579.382 646.409 576.56 657.817 571.855 C 674.87 564.682 688.276 552.921 697.567 539.279 C 706.74 525.519 711.797 509.877 711.797 494.589 C 711.797 486.239 710.268 478.124 707.093 470.479 C 703.918 462.835 699.096 455.661 692.628 449.781 C 689.688 447.076 685.101 447.311 682.514 450.251 C 679.809 453.191 680.044 457.778 682.984 460.365 C 687.806 464.952 691.452 470.126 693.804 475.889 C 696.156 481.652 697.332 488.003 697.332 494.589 C 697.332 502.703 695.568 511.171 692.04 519.286 C 686.865 531.517 677.81 542.924 665.461 551.274 C 653.231 559.624 637.824 564.917 619.361 564.917 Q 615.362 564.917 611.128 564.564 C 601.955 563.858 593.488 561.506 585.608 557.978 C 578.67 554.803 572.201 550.686 565.851 545.747 C 554.914 537.162 544.8 525.989 535.156 513.405 C 520.573 494.706 507.049 473.067 492.584 452.721 C 485.292 442.607 477.883 432.728 469.769 423.79 C 461.771 414.969 453.069 406.855 443.543 400.269 C 417.905 382.628 390.268 374.983 363.925 374.983 C 336.406 374.983 310.415 383.333 289.364 397.093 C 278.78 404.032 269.489 412.382 261.845 421.79 C 254.201 431.081 248.203 441.548 244.44 452.838 C 239.265 468.362 236.913 482.946 236.913 496.47 C 236.913 521.638 245.028 542.689 256.553 557.39 C 262.433 564.799 269.019 570.679 276.193 574.796 C 283.249 578.912 290.775 581.264 298.302 581.264 C 301.595 581.264 305.006 580.793 308.298 579.735 C 311.474 578.677 314.531 577.148 317.354 575.031 C 320.529 572.679 321.235 568.092 318.765 564.917 C 316.413 561.741 311.944 561.153 308.769 563.505 L 308.769 563.505 Z " fill="rgb(0,0,0)"/><path d=" M 397.913 385.098 L 393.679 385.098 L 397.913 385.098 L 393.679 385.098 L 397.913 385.098 C 397.913 384.274 398.148 376.747 400.147 366.986 C 401.205 362.164 402.617 356.754 404.734 351.345 C 406.733 346.052 409.438 340.76 412.731 336.056 C 415.083 332.763 414.259 328.294 410.967 325.942 C 407.791 323.707 403.322 324.413 400.97 327.706 C 396.619 333.939 393.444 340.525 390.974 346.993 C 387.328 356.754 385.564 366.045 384.506 373.102 C 383.565 380.04 383.565 384.745 383.565 384.862 C 383.447 388.861 386.623 392.154 390.621 392.271 C 394.62 392.271 397.795 389.096 397.913 385.098 L 397.913 385.098 Z " fill="rgb(0,0,0)"/><path d=" M 441.308 403.914 C 444.366 384.51 454.362 367.221 468.592 354.873 C 482.94 342.524 501.522 335.115 521.867 335.115 C 534.215 335.115 545.976 337.82 556.442 342.759 C 566.909 347.699 576.2 354.755 583.609 363.458 C 586.196 366.516 590.783 366.869 593.841 364.281 C 596.781 361.694 597.133 357.107 594.546 354.05 C 585.726 343.818 574.906 335.468 562.558 329.705 C 550.21 323.943 536.332 320.65 521.867 320.65 C 497.876 320.65 476.001 329.47 459.184 344.053 C 442.367 358.519 430.724 378.747 427.078 401.798 C 426.49 405.679 429.195 409.324 433.076 410.03 C 437.075 410.618 440.72 407.913 441.308 403.914 L 441.308 403.914 Z " fill="rgb(0,0,0)"/><path d=" M 511.518 613.018 C 508.813 619.721 504.226 625.484 498.346 629.482 C 492.466 633.481 485.41 635.833 477.765 635.833 C 471.18 635.833 465.064 634.187 459.772 631.129 C 454.48 628.071 450.011 623.72 446.836 618.545 C 444.719 615.134 440.25 614.076 436.839 616.193 C 433.546 618.31 432.488 622.779 434.487 626.072 C 438.956 633.363 445.189 639.361 452.598 643.595 C 460.007 647.829 468.592 650.299 477.765 650.299 C 488.468 650.299 498.346 647.006 506.578 641.36 C 514.693 635.715 521.161 627.718 524.925 618.427 C 526.336 614.664 524.572 610.548 520.926 609.019 C 517.163 607.49 512.929 609.372 511.518 613.018 L 511.518 613.018 Z " fill="rgb(0,0,0)"/><path d=" M 513.282 483.416 C 510.224 475.184 508.578 466.481 508.578 457.19 C 508.578 439.196 515.046 422.614 525.63 409.677 C 536.332 396.74 551.268 387.45 568.32 383.921 C 572.201 383.216 574.671 379.335 573.965 375.454 C 573.142 371.573 569.379 369.103 565.38 369.926 C 545.035 374.043 527.277 385.098 514.576 400.504 C 501.874 415.91 494.23 435.668 494.23 457.19 C 494.23 468.245 496.229 478.712 499.875 488.355 C 501.169 492.119 505.402 494 509.048 492.589 C 512.811 491.295 514.693 487.062 513.282 483.416 L 513.282 483.416 Z " fill="rgb(0,0,0)"/><path d=" M 792.826 479.182 L 785.535 479.182 C 785.535 563.27 751.43 639.479 696.273 694.636 C 641.117 749.793 565.028 783.899 480.823 783.899 C 396.619 783.899 320.529 749.793 265.255 694.636 C 210.099 639.479 175.994 563.27 175.994 479.182 C 175.994 394.976 210.099 318.768 265.255 263.611 C 320.529 208.454 396.619 174.348 480.823 174.348 C 565.028 174.348 641.117 208.454 696.273 263.611 C 751.43 318.768 785.535 394.976 785.535 479.182 L 792.826 479.182 L 800 479.182 C 800 390.978 764.249 311.241 706.505 253.497 C 648.761 195.752 568.908 160 480.823 160 C 392.738 160 312.885 195.752 255.142 253.497 C 197.398 311.241 161.646 390.978 161.646 479.182 C 161.646 567.269 197.398 647.123 255.142 704.868 C 312.885 762.612 392.738 798.364 480.823 798.364 C 568.908 798.364 648.761 762.612 706.505 704.868 C 764.249 647.123 800 567.269 800 479.182 L 792.826 479.182 Z " fill="rgb(0,0,0)"/></g></g></svg>